<svg width="59" height="95" viewBox="0 0 59 95" fill="none" xmlns="http://www.w3.org/2000/svg">
<path fill-rule="evenodd" clip-rule="evenodd" d="M28.2802 41.1211C40.4659 40.6094 51.0822 49.2865 53.1805 61.1584C55.7175 75.5112 44.8303 89.5287 29.5357 89.6362C13.6951 89.748 2.89822 75.408 5.34483 61.3819C7.30125 50.1809 16.6749 41.607 28.2802 41.1168M12.2418 54.7473C11.4506 54.8376 11.8161 63.4674 11.8118 64.9078C11.8118 67.7027 11.4979 73.3183 11.8849 75.7649L15.0109 75.8036L15.1657 67.1308L19.3881 67.1179L19.4182 64.1381L15.2474 64.0521L15.1399 57.7744L20.5663 57.7486L20.7641 54.8505C18.3475 54.5108 14.7271 54.6656 12.2332 54.743M26.6763 59.6964L25.008 69.04L27.9878 69.0744C28.0351 68.524 27.1063 60.9391 26.6763 59.6921M20.9059 75.7993H24.0276L24.5522 72.0326L28.5554 71.981L29.1702 75.7606L32.4983 75.7821L29.1659 54.7602C27.6223 54.6398 26.083 54.5538 24.5694 54.9236L20.9059 75.8036V75.7993ZM34.0291 75.7821L37.4044 75.7993V54.8376L34.1667 54.6871L34.0291 75.7821ZM43.0931 54.6054C41.9795 54.4334 40.9045 54.5624 39.7908 54.5753L39.7264 75.8208L48.5797 75.8036V72.7593L43.2651 72.7765C42.762 71.4264 43.0157 57.095 43.0931 54.6011M27.833 0.418809C22.3808 1.15838 17.8187 6.0989 18.627 12.467C19.3279 17.9708 24.4877 22.6877 31.0278 21.6471C36.3854 20.7958 40.7755 15.7606 39.894 9.44847C39.1459 4.10807 34.1194 -0.428261 27.833 0.423108M30.0216 94.6455C46.8383 94.1252 60.2237 79.6477 58.4823 62.6246C57.6309 54.3087 54.8661 50.3571 49.8783 44.5524C49.315 43.8945 49.7493 34.366 48.5281 31.3175C47.1608 27.9034 44.5293 25.7191 40.7841 24.4635C32.4338 21.66 33.4916 24.2872 29.9915 25.5858L31.0708 36.0645L27.4804 36.0473L28.5769 25.5901C27.2783 25.0741 25.1585 23.1908 23.7782 23.1822C22.2862 23.1736 18.9237 24.055 17.5779 24.5237C13.9488 25.7879 11.1023 28.1399 9.90266 31.6915C7.98493 37.3759 10.2079 43.1119 8.29022 44.9136C0.36991 52.3437 -1.64672 64.2155 1.50077 74.3632C5.36632 86.8155 17.0748 95.0497 30.0216 94.6498" fill="#353635"/>
</svg>
