<svg width="507" height="138" viewBox="0 0 507 138" fill="none" xmlns="http://www.w3.org/2000/svg">
<g clip-path="url(#clip0_12_801)">
<path d="M177 85.4C178.044 86.833 179.415 87.9953 181 88.79C182.468 89.4628 184.065 89.8042 185.68 89.79C187.219 89.8655 188.753 89.5622 190.148 88.9066C191.543 88.2511 192.756 87.2633 193.68 86.03C195.51 83.52 196.46 79.76 196.46 74.74C196.46 70.09 195.66 66.62 193.97 64.48C193.156 63.4087 192.093 62.5525 190.873 61.986C189.653 61.4195 188.313 61.16 186.97 61.23C185.013 61.1573 183.08 61.6728 181.42 62.71C179.693 63.7706 178.191 65.1603 177 66.8V85.4ZM177 61.19C178.57 59.4438 180.423 57.9734 182.48 56.84C184.617 55.7176 187.006 55.16 189.42 55.22C191.54 55.1869 193.64 55.6384 195.56 56.54C197.371 57.4129 198.948 58.7053 200.16 60.31C201.515 62.112 202.531 64.145 203.16 66.31C203.846 68.9206 204.182 71.6108 204.16 74.31C204.218 77.2488 203.827 80.1793 203 83C202.317 85.43 201.176 87.7074 199.64 89.71C198.265 91.5457 196.463 93.0183 194.39 94C192.232 95.0603 189.853 95.5916 187.45 95.55C186.297 95.5477 185.147 95.4237 184.02 95.18C183.032 94.9673 182.074 94.6314 181.17 94.18C180.285 93.6984 179.451 93.1289 178.68 92.48C177.958 91.7704 177.289 91.0083 176.68 90.2L176.31 93.44C176.272 93.9071 176.051 94.3403 175.695 94.6454C175.339 94.9506 174.877 95.1032 174.41 95.07H169.59V38H177V61.19ZM220.33 55.81V95.07H212.88V55.81H220.33ZM221.72 43.7C221.713 44.3899 221.563 45.0708 221.28 45.7C221.002 46.2951 220.63 46.842 220.18 47.32C219.72 47.8233 219.143 48.2046 218.5 48.43C217.872 48.7185 217.19 48.8686 216.5 48.87C215.809 48.8751 215.125 48.7248 214.5 48.43C213.917 48.1868 213.403 47.8059 213 47.32C212.527 46.8604 212.153 46.3092 211.9 45.7C211.616 45.0609 211.469 44.3693 211.469 43.67C211.469 42.9707 211.616 42.2791 211.9 41.64C212.15 41.0237 212.525 40.4654 213 40C213.434 39.4993 213.988 39.1173 214.61 38.89C215.233 38.5905 215.918 38.4399 216.61 38.45C217.301 38.4466 217.984 38.5969 218.61 38.89C219.213 39.131 219.751 39.5114 220.18 40C220.63 40.478 221.002 41.0249 221.28 41.62C221.571 42.2676 221.721 42.9699 221.72 43.68V43.7ZM258.18 59C258.187 59.5317 258.085 60.0593 257.88 60.55C257.732 61.0396 257.484 61.4927 257.15 61.88L236.77 89.18H257.52V95.09H228V91.89C228.045 91.4369 228.142 90.9906 228.29 90.56C228.462 90.0597 228.708 89.5879 229.02 89.16L249.56 61.71H229.24V55.81H258.18V59ZM272.86 61.29C273.664 60.3806 274.544 59.5409 275.49 58.78C276.406 58.0567 277.383 57.4143 278.41 56.86C279.458 56.3438 280.562 55.948 281.7 55.68C282.944 55.3819 284.22 55.2342 285.5 55.24C287.446 55.2055 289.381 55.545 291.2 56.24C292.732 56.9436 294.095 57.9664 295.2 59.24C296.37 60.6258 297.223 62.2503 297.7 64C298.302 65.9424 298.599 67.9665 298.58 70V95H291.05V70C291.185 67.6573 290.514 65.339 289.15 63.43C287.91 61.88 285.94 61.14 283.31 61.14C281.452 61.1441 279.625 61.6189 278 62.52C276.249 63.5187 274.669 64.7915 273.32 66.29V95.07H265.87V55.81H270.32C270.774 55.7745 271.226 55.9034 271.593 56.1733C271.96 56.4431 272.218 56.8359 272.32 57.28L272.86 61.29ZM334.31 71.1C334.346 69.7 334.146 68.3039 333.72 66.97C333.322 65.7445 332.675 64.6142 331.82 63.65C331.011 62.7362 330.015 62.0065 328.9 61.51C327.603 60.9822 326.21 60.7302 324.81 60.77C323.458 60.6934 322.105 60.8963 320.835 61.3661C319.566 61.8358 318.406 62.5622 317.43 63.5C315.6 65.27 314.51 67.86 314 71.1H334.31ZM340.52 89.48C339.57 90.5465 338.488 91.4874 337.3 92.28C336.095 93.0364 334.823 93.6792 333.5 94.2C332.14 94.6375 330.75 94.9718 329.34 95.2C327.914 95.4294 326.474 95.5531 325.03 95.57C322.501 95.6054 319.99 95.1292 317.65 94.17C315.385 93.3287 313.355 91.9571 311.73 90.17C309.984 88.2702 308.643 86.0348 307.79 83.6C306.805 80.7041 306.334 77.6581 306.4 74.6C306.399 72.0162 306.818 69.4494 307.64 67C308.468 64.7491 309.706 62.6708 311.29 60.87C312.87 59.0989 314.815 57.6901 316.99 56.74C319.411 55.7047 322.027 55.2033 324.66 55.27C326.909 55.2284 329.145 55.6294 331.24 56.45C333.193 57.1943 334.963 58.3505 336.43 59.84C337.937 61.435 339.104 63.3198 339.86 65.38C340.714 67.7696 341.134 70.2926 341.1 72.83C341.177 73.6424 341.025 74.4602 340.66 75.19C340.499 75.3972 340.287 75.56 340.046 75.6632C339.805 75.7664 339.541 75.8066 339.28 75.78H313.78C313.849 77.8577 314.185 79.918 314.78 81.91C315.299 83.5001 316.117 84.9765 317.19 86.26C318.221 87.3924 319.497 88.2748 320.92 88.84C322.433 89.4252 324.048 89.7006 325.67 89.65C327.124 89.6945 328.576 89.5226 329.98 89.14C331.066 88.7966 332.117 88.3513 333.12 87.81C334 87.37 334.73 87 335.31 86.63C335.775 86.2755 336.336 86.0699 336.92 86.04C337.188 86.0262 337.456 86.0792 337.698 86.1944C337.941 86.3096 338.151 86.4834 338.31 86.7L340.52 89.48ZM372 62.6C371.817 62.8539 371.594 63.0767 371.34 63.26C371.075 63.4206 370.769 63.4973 370.46 63.48C369.969 63.4569 369.493 63.3052 369.08 63.04C368.64 62.82 367.98 62.45 367.32 62.15C366.522 61.7492 365.693 61.4148 364.84 61.15C363.744 60.8637 362.612 60.739 361.48 60.78C360.49 60.7458 359.5 60.8707 358.55 61.15C357.752 61.4203 356.992 61.7935 356.29 62.26C355.706 62.7167 355.231 63.2973 354.9 63.96C354.553 64.6193 354.378 65.3552 354.39 66.1C354.363 66.9924 354.678 67.8614 355.27 68.53C355.92 69.2033 356.686 69.7552 357.53 70.16C358.535 70.6742 359.586 71.0927 360.67 71.41C361.92 71.78 363.08 72.22 364.33 72.59C365.58 72.96 366.74 73.48 367.98 73.99C369.12 74.4963 370.179 75.1705 371.12 75.99C372.051 76.7669 372.822 77.718 373.39 78.79C373.999 80.0547 374.297 81.4467 374.26 82.85C374.275 84.5969 373.935 86.3287 373.26 87.94C372.645 89.5027 371.664 90.8951 370.4 92C369.021 93.1724 367.433 94.0747 365.72 94.66C363.676 95.3531 361.528 95.6913 359.37 95.66C356.825 95.6864 354.298 95.2352 351.92 94.33C349.822 93.5341 347.89 92.3577 346.22 90.86L348 88C348.188 87.6627 348.465 87.3828 348.8 87.19C349.146 86.9633 349.557 86.8578 349.97 86.89C350.526 86.8922 351.066 87.0746 351.51 87.41C352.02 87.78 352.6 88.15 353.33 88.59C354.167 89.066 355.048 89.4611 355.96 89.77C357.195 90.1246 358.475 90.2998 359.76 90.29C360.879 90.3229 361.995 90.1465 363.05 89.77C363.941 89.5085 364.764 89.0545 365.46 88.44C366.029 87.9141 366.5 87.291 366.85 86.6C367.141 85.8718 367.291 85.0944 367.29 84.31C367.329 83.3703 367.015 82.4501 366.41 81.73C365.773 81.0053 365.006 80.4051 364.15 79.96C363.149 79.4205 362.093 78.9913 361 78.68C359.75 78.31 358.51 77.95 357.27 77.5C356.029 77.0991 354.811 76.6317 353.62 76.1C352.47 75.5527 351.402 74.8457 350.45 74C349.499 73.1651 348.73 72.144 348.19 71C347.565 69.6621 347.263 68.196 347.31 66.72C347.292 65.1909 347.616 63.6772 348.26 62.29C348.908 60.9064 349.841 59.676 351 58.68C352.276 57.5401 353.764 56.6634 355.38 56.1C359.613 54.8317 364.14 54.9368 368.31 56.4C370.285 57.1875 372.097 58.3372 373.65 59.79L372 62.6Z" fill="#282828"/>
<path d="M420.59 95.07H409.2C408.461 95.0841 407.738 94.848 407.15 94.4C406.643 93.9977 406.221 93.4979 405.91 92.93L398.91 80.68C398.787 81.1144 398.616 81.5336 398.4 81.93C398.253 82.288 398.057 82.6244 397.82 82.93L392.05 92.93C391.671 93.4512 391.253 93.9427 390.8 94.4C390.272 94.8457 389.6 95.0839 388.91 95.07H378.36L391.66 74.33L378.88 55H390.27C390.894 54.9521 391.521 55.0514 392.1 55.29C392.554 55.5617 392.932 55.9435 393.2 56.4L400.2 68.28C400.35 67.84 400.57 67.39 400.78 66.88C401.022 66.4202 401.292 65.976 401.59 65.55L406.59 56.62C406.878 56.1376 407.251 55.7109 407.69 55.36C408.153 55.1096 408.674 54.9854 409.2 55H420.08L407.3 73.81L420.59 95.07ZM436.16 84.14C436.925 85.0501 437.899 85.7605 439 86.21C440.04 86.6394 441.154 86.8635 442.28 86.87C443.357 86.9157 444.428 86.6818 445.388 86.1912C446.349 85.7005 447.166 84.9698 447.76 84.07C448.498 82.9209 449.02 81.6467 449.3 80.31C449.706 78.4681 449.901 76.586 449.88 74.7C449.915 72.9196 449.767 71.1403 449.44 69.39C449.233 68.1341 448.788 66.9292 448.13 65.84C447.658 65.0243 446.964 64.3587 446.13 63.92C445.326 63.5577 444.451 63.3833 443.57 63.41C442.092 63.3534 440.627 63.6991 439.33 64.41C438.075 65.1078 436.982 66.0618 436.12 67.21L436.16 84.14ZM435.43 59.94C436.939 58.2779 438.717 56.8817 440.69 55.81C442.887 54.7197 445.318 54.1873 447.77 54.26C449.749 54.2417 451.703 54.6978 453.47 55.59C455.273 56.549 456.825 57.9193 458 59.59C459.396 61.5309 460.436 63.7048 461.07 66.01C461.806 68.829 462.142 71.7374 462.07 74.65C462.117 77.4758 461.729 80.2921 460.92 83C460.113 85.3852 458.932 87.6266 457.42 89.64C455.958 91.4627 454.141 92.9698 452.08 94.07C449.918 95.1182 447.542 95.6489 445.14 95.62C443.371 95.6701 441.61 95.3675 439.96 94.73C438.576 94.149 437.294 93.3525 436.16 92.37V107.72H424.25V55H431.63C432.271 54.9555 432.908 55.1288 433.438 55.4918C433.968 55.8548 434.36 56.3863 434.55 57L435.43 59.94ZM486.5 54.4C489.313 54.3567 492.111 54.8347 494.75 55.81C497.156 56.6868 499.33 58.0991 501.11 59.94C502.909 61.7827 504.323 63.9651 505.27 66.36C506.27 69.1017 506.764 72.0019 506.73 74.92C506.758 77.8604 506.264 80.7825 505.27 83.55C504.342 85.9784 502.927 88.1907 501.11 90.05C499.328 91.888 497.154 93.2998 494.75 94.18C489.423 96.1535 483.566 96.1535 478.24 94.18C475.826 93.2794 473.633 91.871 471.81 90.05C469.993 88.1907 468.577 85.9784 467.65 83.55C466.656 80.7825 466.162 77.8604 466.19 74.92C466.155 72.0019 466.65 69.1017 467.65 66.36C468.597 63.9651 470.011 61.7827 471.81 59.94C473.631 58.1165 475.824 56.7077 478.24 55.81C480.883 54.834 483.683 54.3559 486.5 54.4ZM486.5 86.8C487.683 86.8689 488.865 86.6286 489.927 86.1026C490.99 85.5765 491.897 84.783 492.56 83.8C493.8 81.88 494.46 78.93 494.46 74.94C494.46 70.95 493.8 68.01 492.56 66.09C491.886 65.1255 490.974 64.3528 489.911 63.8478C488.849 63.3429 487.673 63.1231 486.5 63.21C483.72 63.21 481.673 64.17 480.36 66.09C479.04 68.01 478.36 70.96 478.36 74.94C478.36 78.92 479.01 81.88 480.36 83.8C481.042 84.7831 481.964 85.575 483.039 86.1002C484.114 86.6254 485.305 86.8663 486.5 86.8Z" fill="#282828"/>
<path fill-rule="evenodd" clip-rule="evenodd" d="M135.68 68.55C135.68 30.77 105.21 0 67.88 0C30.55 0 0 30.77 0 68.55C0 106.33 30.47 137 67.88 137C105.29 137 135.68 106.22 135.68 68.51V68.55Z" fill="#282828"/>
<path d="M46.8098 100.87H86.6898V107.87C86.6767 108.307 86.4919 108.721 86.1756 109.022C85.8592 109.324 85.4367 109.488 84.9998 109.48H48.4598C48.0195 109.48 47.5973 109.305 47.286 108.994C46.9747 108.682 46.7998 108.26 46.7998 107.82V100.82L46.8098 100.87Z" fill="white"/>
<path fill-rule="evenodd" clip-rule="evenodd" d="M54.46 112.5H78.63C79.6947 112.526 80.7077 112.965 81.4542 113.725C82.2008 114.485 82.6225 115.505 82.63 116.57C82.6301 117.637 82.2109 118.662 81.4627 119.423C80.7145 120.185 79.6972 120.622 78.63 120.64H54.46C53.3927 120.622 52.3754 120.185 51.6272 119.423C50.879 118.662 50.4598 117.637 50.46 116.57C50.4674 115.505 50.8891 114.485 51.6357 113.725C52.3823 112.965 53.3952 112.526 54.46 112.5Z" fill="white"/>
<path d="M30.2698 45.24L27.3198 74.89L47.6198 95.96" stroke="white" stroke-width="2" stroke-miterlimit="10" stroke-linecap="round"/>
<path d="M36.1998 61.41L27.3198 74.89" stroke="white" stroke-width="2" stroke-miterlimit="10"/>
<path d="M102.44 45.73L106.4 74.89L86.4199 95.86" stroke="white" stroke-width="2" stroke-miterlimit="10" stroke-linecap="round"/>
<path d="M96.7402 61.41L105.63 74.89" stroke="white" stroke-width="2" stroke-miterlimit="10"/>
<path fill-rule="evenodd" clip-rule="evenodd" d="M29.3101 44.39L66.7201 15.6C66.7553 15.5755 66.7971 15.5623 66.8401 15.5623C66.883 15.5623 66.9248 15.5755 66.9601 15.6L103.14 44.31C103.172 44.3333 103.196 44.3661 103.209 44.4037C103.221 44.4414 103.222 44.4821 103.21 44.52L86.6501 97.15L47.5601 97.25C47.518 97.2484 47.4774 97.2342 47.4435 97.2092C47.4097 97.1842 47.3841 97.1497 47.3701 97.11L29.3101 44.39Z" fill="#FFEF87"/>
<mask id="mask0_12_801" style="mask-type:luminance" maskUnits="userSpaceOnUse" x="29" y="15" width="75" height="83">
<path d="M29.3101 44.39L66.7201 15.6C66.7553 15.5755 66.7971 15.5623 66.8401 15.5623C66.883 15.5623 66.9248 15.5755 66.9601 15.6L103.14 44.31C103.172 44.3333 103.196 44.3661 103.209 44.4037C103.221 44.4414 103.222 44.4821 103.21 44.52L86.6501 97.15L47.5601 97.25C47.518 97.2484 47.4774 97.2342 47.4435 97.2092C47.4097 97.1842 47.3841 97.1497 47.3701 97.11L29.3101 44.39Z" fill="white"/>
</mask>
<g mask="url(#mask0_12_801)">
<path d="M67.9999 13.7L31.3599 68.11" stroke="#282828" stroke-width="2" stroke-linecap="round" stroke-linejoin="round"/>
<path d="M66.7197 15.6L97.6197 62.73" stroke="#282828" stroke-width="2" stroke-linecap="round" stroke-linejoin="round"/>
<path fill-rule="evenodd" clip-rule="evenodd" d="M74.4099 74V68.44C74.4018 67.3272 74.0227 66.2488 73.3326 65.3758C72.6425 64.5027 71.6808 63.8848 70.5999 63.62V45.84H69.8299V40.6C69.8299 40.4754 69.7804 40.3558 69.6922 40.2677C69.6041 40.1795 69.4846 40.13 69.3599 40.13C68.9973 40.1404 68.6529 40.2911 68.3992 40.5503C68.1455 40.8096 68.0023 41.1573 67.9999 41.52V46.47C67.5704 46.7384 67.2159 47.1112 66.9694 47.5536C66.7228 47.996 66.5923 48.4936 66.5899 49V56.3C65.7877 56.3333 65.0289 56.6737 64.4706 57.2506C63.9122 57.8276 63.5969 58.5971 63.5899 59.4V64.51C62.4434 65.1614 61.4903 66.1053 60.8279 67.2456C60.1656 68.3858 59.8177 69.6814 59.8199 71V77.76C59.6978 77.7166 59.5695 77.693 59.4399 77.69H57.9999C57.4982 77.6861 57.0007 77.7809 56.5357 77.9693C56.0708 78.1576 55.6474 78.4357 55.2899 78.7876C54.9324 79.1395 54.6477 79.5585 54.4521 80.0204C54.2565 80.4824 54.1538 80.9784 54.1499 81.48V97.85H78.3699V78C78.37 76.946 77.954 75.9346 77.2125 75.1856C76.471 74.4366 75.4638 74.0105 74.4099 74Z" fill="#282828"/>
<path d="M70.2 69.76H62.27V72.19H70.2V69.76Z" fill="#FFEF87"/>
<path d="M70.2 75.22H62.27V77.65H70.2V75.22Z" fill="#FFEF87"/>
<path d="M70.2 80.68H62.27V83.11H70.2V80.68Z" fill="#FFEF87"/>
<path d="M70.2 86.14H62.27V88.57H70.2V86.14Z" fill="#FFEF87"/>
<path d="M70.2 91.6H62.27V94.03H70.2V91.6Z" fill="#FFEF87"/>
<path d="M58.9001 80.68H56.0801V83.11H58.9001V80.68Z" fill="#FFEF87"/>
<path d="M58.9001 86.14H56.0801V88.57H58.9001V86.14Z" fill="#FFEF87"/>
<path d="M58.9001 91.6H56.0801V94.03H58.9001V91.6Z" fill="#FFEF87"/>
<path d="M76.32 80.68H73.5V83.11H76.32V80.68Z" fill="#FFEF87"/>
<path d="M76.32 86.14H73.5V88.57H76.32V86.14Z" fill="#FFEF87"/>
<path d="M76.32 91.6H73.5V94.03H76.32V91.6Z" fill="#FFEF87"/>
</g>
</g>
<defs>
<clipPath id="clip0_12_801">
<rect width="506.73" height="137.04" fill="white"/>
</clipPath>
</defs>
</svg>
