<svg viewBox="0 0 136 137" fill="none" xmlns="http://www.w3.org/2000/svg">
<path fill-rule="evenodd" clip-rule="evenodd" d="M135.68 68.55C135.68 30.77 105.21 0 67.88 0C30.55 0 0 30.77 0 68.55C0 106.33 30.47 137 67.88 137C105.29 137 135.68 106.22 135.68 68.51V68.55Z" fill="#282828"/>
<path d="M46.8098 100.87H86.6898V107.87C86.6767 108.307 86.4919 108.721 86.1756 109.022C85.8592 109.324 85.4367 109.488 84.9998 109.48H48.4598C48.0195 109.48 47.5973 109.305 47.286 108.994C46.9747 108.682 46.7998 108.26 46.7998 107.82V100.82L46.8098 100.87Z" fill="white"/>
<path fill-rule="evenodd" clip-rule="evenodd" d="M54.46 112.5H78.63C79.6948 112.526 80.7077 112.965 81.4542 113.725C82.2008 114.485 82.6225 115.505 82.63 116.57C82.6301 117.637 82.2109 118.662 81.4627 119.423C80.7145 120.185 79.6972 120.622 78.63 120.64H54.46C53.3927 120.622 52.3754 120.185 51.6272 119.423C50.879 118.662 50.4598 117.637 50.46 116.57C50.4674 115.505 50.8891 114.485 51.6357 113.725C52.3823 112.965 53.3952 112.526 54.46 112.5Z" fill="white"/>
<path d="M30.2703 45.24L27.3203 74.89L47.6203 95.96" stroke="white" stroke-width="2" stroke-miterlimit="10" stroke-linecap="round"/>
<path d="M36.2003 61.41L27.3203 74.89" stroke="white" stroke-width="2" stroke-miterlimit="10"/>
<path d="M102.44 45.73L106.4 74.89L86.4199 95.86" stroke="white" stroke-width="2" stroke-miterlimit="10" stroke-linecap="round"/>
<path d="M96.7402 61.41L105.63 74.89" stroke="white" stroke-width="2" stroke-miterlimit="10"/>
<path fill-rule="evenodd" clip-rule="evenodd" d="M29.3101 44.39L66.7201 15.6C66.7553 15.5755 66.7971 15.5623 66.8401 15.5623C66.883 15.5623 66.9248 15.5755 66.9601 15.6L103.14 44.31C103.172 44.3333 103.196 44.3661 103.209 44.4037C103.221 44.4414 103.222 44.4821 103.21 44.52L86.6501 97.15L47.5601 97.25C47.518 97.2484 47.4774 97.2342 47.4435 97.2092C47.4097 97.1842 47.3841 97.1497 47.3701 97.11L29.3101 44.39Z" fill="#FFEF87"/>
<mask id="mask0_108_216" style="mask-type:luminance" maskUnits="userSpaceOnUse" x="29" y="15" width="75" height="83">
<path d="M29.3101 44.39L66.7201 15.6C66.7553 15.5755 66.7971 15.5623 66.8401 15.5623C66.883 15.5623 66.9248 15.5755 66.9601 15.6L103.14 44.31C103.172 44.3333 103.196 44.3661 103.209 44.4037C103.221 44.4414 103.222 44.4821 103.21 44.52L86.6501 97.15L47.5601 97.25C47.518 97.2484 47.4774 97.2342 47.4435 97.2092C47.4097 97.1842 47.3841 97.1497 47.3701 97.11L29.3101 44.39Z" fill="white"/>
</mask>
<g mask="url(#mask0_108_216)">
<path d="M68.0004 13.7L31.3604 68.11" stroke="#282828" stroke-width="2" stroke-linecap="round" stroke-linejoin="round"/>
<path d="M66.7202 15.6L97.6202 62.73" stroke="#282828" stroke-width="2" stroke-linecap="round" stroke-linejoin="round"/>
<path fill-rule="evenodd" clip-rule="evenodd" d="M74.4104 74V68.44C74.4023 67.3272 74.0232 66.2488 73.3331 65.3758C72.6429 64.5027 71.6813 63.8848 70.6004 63.62V45.84H69.8304V40.6C69.8304 40.4754 69.7809 40.3558 69.6927 40.2677C69.6046 40.1795 69.485 40.13 69.3604 40.13C68.9978 40.1404 68.6534 40.2911 68.3997 40.5503C68.146 40.8096 68.0028 41.1573 68.0004 41.52V46.47C67.5709 46.7384 67.2164 47.1112 66.9698 47.5536C66.7233 47.996 66.5928 48.4936 66.5904 49V56.3C65.7882 56.3333 65.0294 56.6737 64.471 57.2506C63.9127 57.8276 63.5974 58.5971 63.5904 59.4V64.51C62.4439 65.1614 61.4907 66.1053 60.8284 67.2456C60.1661 68.3858 59.8182 69.6814 59.8204 71V77.76C59.6982 77.7166 59.57 77.693 59.4404 77.69H58.0004C57.4987 77.6861 57.0012 77.7809 56.5362 77.9693C56.0713 78.1576 55.6479 78.4357 55.2904 78.7876C54.9329 79.1395 54.6482 79.5585 54.4526 80.0204C54.257 80.4824 54.1543 80.9784 54.1504 81.48V97.85H78.3704V78C78.3704 76.946 77.9545 75.9346 77.213 75.1856C76.4715 74.4366 75.4643 74.0105 74.4104 74Z" fill="#282828"/>
<path d="M70.2005 69.76H62.2705V72.19H70.2005V69.76Z" fill="#FFEF87"/>
<path d="M70.2005 75.22H62.2705V77.65H70.2005V75.22Z" fill="#FFEF87"/>
<path d="M70.2005 80.68H62.2705V83.11H70.2005V80.68Z" fill="#FFEF87"/>
<path d="M70.2005 86.14H62.2705V88.57H70.2005V86.14Z" fill="#FFEF87"/>
<path d="M70.2005 91.6H62.2705V94.03H70.2005V91.6Z" fill="#FFEF87"/>
<path d="M58.9006 80.68H56.0806V83.11H58.9006V80.68Z" fill="#FFEF87"/>
<path d="M58.9006 86.14H56.0806V88.57H58.9006V86.14Z" fill="#FFEF87"/>
<path d="M58.9006 91.6H56.0806V94.03H58.9006V91.6Z" fill="#FFEF87"/>
<path d="M76.3205 80.68H73.5005V83.11H76.3205V80.68Z" fill="#FFEF87"/>
<path d="M76.3205 86.14H73.5005V88.57H76.3205V86.14Z" fill="#FFEF87"/>
<path d="M76.3205 91.6H73.5005V94.03H76.3205V91.6Z" fill="#FFEF87"/>
</g>
</svg>
