<svg viewBox="0 0 338 70" fill="none" xmlns="http://www.w3.org/2000/svg">
<path d="M7.41 47.4C8.45377 48.833 9.8253 49.9953 11.41 50.79C12.8777 51.4628 14.4755 51.8042 16.09 51.79C17.6293 51.8655 19.1636 51.5622 20.5584 50.9066C21.9532 50.2511 23.1658 49.2633 24.09 48.03C25.92 45.52 26.87 41.76 26.87 36.74C26.87 32.09 26.07 28.62 24.38 26.48C23.5666 25.4087 22.5035 24.5525 21.2835 23.986C20.0634 23.4195 18.7233 23.16 17.38 23.23C15.4236 23.1573 13.4904 23.6728 11.83 24.71C10.103 25.7706 8.6012 27.1603 7.41 28.8V47.4ZM7.41 23.19C8.98057 21.4438 10.8329 19.9734 12.89 18.84C15.0275 17.7176 17.4164 17.16 19.83 17.22C21.9505 17.1869 24.0505 17.6384 25.97 18.54C27.7814 19.4129 29.3584 20.7053 30.57 22.31C31.9248 24.112 32.9413 26.145 33.57 28.31C34.256 30.9206 34.5923 33.6108 34.57 36.31C34.6283 39.2488 34.2371 42.1793 33.41 45C32.727 47.43 31.5867 49.7074 30.05 51.71C28.675 53.5457 26.8729 55.0183 24.8 56C22.6425 57.0603 20.2636 57.5916 17.86 57.55C16.7068 57.5477 15.5571 57.4237 14.43 57.18C13.4419 56.9673 12.4844 56.6313 11.58 56.18C10.695 55.6984 9.8608 55.1289 9.09 54.48C8.368 53.7704 7.69951 53.0083 7.09 52.2L6.72 55.44C6.68168 55.9071 6.46067 56.3403 6.10495 56.6454C5.74923 56.9506 5.28752 57.1032 4.82001 57.07H0V0H7.41V23.19ZM50.74 17.81V57.07H43.29V17.81H50.74ZM52.13 5.7C52.1229 6.38988 51.9731 7.07083 51.69 7.7C51.4119 8.29511 51.0406 8.842 50.59 9.32C50.1304 9.82326 49.5532 10.2046 48.91 10.43C48.2826 10.7185 47.6005 10.8686 46.91 10.87C46.2188 10.8751 45.5353 10.7248 44.91 10.43C44.3275 10.1868 43.8128 9.80593 43.41 9.32C42.937 8.86041 42.5627 8.30917 42.31 7.7C42.0261 7.0609 41.8794 6.36933 41.8794 5.67C41.8794 4.97066 42.0261 4.2791 42.31 3.64C42.5603 3.02368 42.9347 2.46545 43.41 2C43.8437 1.49927 44.3978 1.11726 45.02 0.889999C45.6436 0.590542 46.3283 0.439925 47.02 0.450001C47.711 0.446558 48.3942 0.596852 49.02 0.889999C49.6236 1.13099 50.1615 1.51135 50.59 2C51.0406 2.478 51.4119 3.02489 51.69 3.62C51.9813 4.26763 52.1313 4.96988 52.13 5.68V5.7ZM88.59 21C88.597 21.5317 88.4949 22.0593 88.29 22.55C88.1425 23.0396 87.8938 23.4927 87.56 23.88L67.18 51.18H87.93V57.09H58.41V53.89C58.4547 53.4369 58.552 52.9906 58.7 52.56C58.8726 52.0597 59.1186 51.5879 59.43 51.16L79.97 23.71H59.65V17.81H88.59V21ZM103.27 23.29C104.074 22.3806 104.954 21.5409 105.9 20.78C106.816 20.0567 107.793 19.4143 108.82 18.86C109.869 18.3438 110.972 17.948 112.11 17.68C113.355 17.3819 114.63 17.2342 115.91 17.24C117.856 17.2055 119.792 17.545 121.61 18.24C123.142 18.9436 124.506 19.9664 125.61 21.24C126.78 22.6258 127.633 24.2503 128.11 26C128.712 27.9424 129.009 29.9665 128.99 32V57H121.46V32C121.595 29.6573 120.925 27.339 119.56 25.43C118.32 23.88 116.35 23.14 113.72 23.14C111.862 23.1441 110.035 23.6189 108.41 24.52C106.659 25.5187 105.079 26.7915 103.73 28.29V57.07H96.28V17.81H100.73C101.184 17.7745 101.636 17.9034 102.003 18.1733C102.37 18.4431 102.628 18.8359 102.73 19.28L103.27 23.29ZM164.72 33.1C164.756 31.7 164.556 30.3039 164.13 28.97C163.732 27.7445 163.085 26.6142 162.23 25.65C161.421 24.7362 160.425 24.0065 159.31 23.51C158.013 22.9822 156.62 22.7302 155.22 22.77C153.868 22.6934 152.515 22.8963 151.246 23.3661C149.976 23.8358 148.816 24.5622 147.84 25.5C146.01 27.27 144.92 29.86 144.41 33.1H164.72ZM170.93 51.48C169.98 52.5465 168.898 53.4874 167.71 54.28C166.506 55.0364 165.233 55.6792 163.91 56.2C162.55 56.6375 161.16 56.9718 159.75 57.2C158.324 57.4294 156.884 57.5531 155.44 57.57C152.911 57.6054 150.401 57.1292 148.06 56.17C145.795 55.3287 143.765 53.9571 142.14 52.17C140.394 50.2702 139.054 48.0348 138.2 45.6C137.215 42.7041 136.744 39.6581 136.81 36.6C136.809 34.0162 137.228 31.4494 138.05 29C138.878 26.7491 140.116 24.6708 141.7 22.87C143.28 21.0989 145.225 19.6901 147.4 18.74C149.821 17.7047 152.437 17.2033 155.07 17.27C157.319 17.2284 159.555 17.6294 161.65 18.45C163.603 19.1943 165.373 20.3505 166.84 21.84C168.347 23.435 169.514 25.3198 170.27 27.38C171.124 29.7696 171.544 32.2926 171.51 34.83C171.588 35.6424 171.435 36.4602 171.07 37.19C170.909 37.3972 170.698 37.56 170.456 37.6632C170.215 37.7664 169.951 37.8066 169.69 37.78H144.19C144.259 39.8577 144.595 41.918 145.19 43.91C145.709 45.5001 146.527 46.9765 147.6 48.26C148.631 49.3924 149.907 50.2748 151.33 50.84C152.843 51.4252 154.458 51.7006 156.08 51.65C157.534 51.6945 158.987 51.5226 160.39 51.14C161.476 50.7966 162.528 50.3513 163.53 49.81C164.41 49.37 165.14 49 165.72 48.63C166.185 48.2755 166.746 48.0699 167.33 48.04C167.598 48.0262 167.866 48.0792 168.108 48.1944C168.351 48.3096 168.561 48.4834 168.72 48.7L170.93 51.48ZM202.41 24.6C202.227 24.8539 202.004 25.0767 201.75 25.26C201.486 25.4206 201.179 25.4973 200.87 25.48C200.379 25.4569 199.903 25.3052 199.49 25.04C199.05 24.82 198.39 24.45 197.73 24.15C196.932 23.7492 196.103 23.4148 195.25 23.15C194.154 22.8637 193.022 22.739 191.89 22.78C190.9 22.7458 189.911 22.8707 188.96 23.15C188.162 23.4203 187.402 23.7935 186.7 24.26C186.116 24.7167 185.642 25.2973 185.31 25.96C184.963 26.6193 184.788 27.3552 184.8 28.1C184.774 28.9924 185.088 29.8614 185.68 30.53C186.331 31.2033 187.096 31.7552 187.94 32.16C188.945 32.6742 189.996 33.0927 191.08 33.41C192.33 33.78 193.49 34.22 194.74 34.59C195.99 34.96 197.15 35.48 198.39 35.99C199.531 36.4963 200.589 37.1705 201.53 37.99C202.461 38.7669 203.233 39.718 203.8 40.79C204.409 42.0547 204.708 43.4467 204.67 44.85C204.685 46.5969 204.345 48.3287 203.67 49.94C203.055 51.5027 202.075 52.8951 200.81 54C199.431 55.1724 197.843 56.0747 196.13 56.66C194.086 57.3531 191.938 57.6913 189.78 57.66C187.235 57.6864 184.708 57.2352 182.33 56.33C180.233 55.5341 178.3 54.3577 176.63 52.86L178.41 50C178.599 49.6627 178.875 49.3828 179.21 49.19C179.556 48.9633 179.968 48.8578 180.38 48.89C180.936 48.8922 181.476 49.0746 181.92 49.41C182.43 49.78 183.01 50.15 183.74 50.59C184.577 51.066 185.458 51.4611 186.37 51.77C187.605 52.1246 188.885 52.2998 190.17 52.29C191.289 52.3229 192.405 52.1465 193.46 51.77C194.351 51.5085 195.174 51.0545 195.87 50.44C196.439 49.9141 196.91 49.291 197.26 48.6C197.552 47.8718 197.701 47.0944 197.7 46.31C197.739 45.3703 197.425 44.4501 196.82 43.73C196.183 43.0053 195.416 42.4051 194.56 41.96C193.559 41.4205 192.503 40.9913 191.41 40.68C190.16 40.31 188.92 39.95 187.68 39.5C186.439 39.0991 185.221 38.6317 184.03 38.1C182.88 37.5527 181.813 36.8457 180.86 36C179.909 35.1651 179.14 34.144 178.6 33C177.975 31.6621 177.673 30.196 177.72 28.72C177.702 27.1909 178.027 25.6772 178.67 24.29C179.318 22.9064 180.252 21.676 181.41 20.68C182.686 19.5401 184.174 18.6634 185.79 18.1C190.024 16.8317 194.55 16.9368 198.72 18.4C200.696 19.1875 202.507 20.3372 204.06 21.79L202.41 24.6Z" fill="#282828"/>
<path d="M251 57.07H239.61C238.871 57.0841 238.148 56.848 237.56 56.4C237.053 55.9977 236.631 55.4978 236.32 54.93L229.32 42.68C229.197 43.1143 229.026 43.5336 228.81 43.93C228.663 44.288 228.468 44.6243 228.23 44.93L222.46 54.93C222.082 55.4512 221.664 55.9427 221.21 56.4C220.682 56.8457 220.011 57.0839 219.32 57.07H208.77L222.07 36.33L209.29 17H220.68C221.304 16.9521 221.931 17.0514 222.51 17.29C222.964 17.5617 223.342 17.9435 223.61 18.4L230.61 30.28C230.76 29.84 230.98 29.39 231.19 28.88C231.432 28.4202 231.703 27.976 232 27.55L237 18.62C237.288 18.1376 237.661 17.7108 238.1 17.36C238.563 17.1096 239.084 16.9854 239.61 17H250.49L237.71 35.81L251 57.07ZM266.57 46.14C267.335 47.0501 268.31 47.7605 269.41 48.21C270.451 48.6394 271.564 48.8635 272.69 48.87C273.767 48.9157 274.838 48.6818 275.799 48.1912C276.759 47.7005 277.576 46.9698 278.17 46.07C278.908 44.9209 279.43 43.6467 279.71 42.31C280.116 40.4681 280.311 38.5859 280.29 36.7C280.325 34.9196 280.178 33.1403 279.85 31.39C279.643 30.1341 279.199 28.9292 278.54 27.84C278.068 27.0242 277.374 26.3587 276.54 25.92C275.737 25.5577 274.861 25.3833 273.98 25.41C272.502 25.3534 271.037 25.699 269.74 26.41C268.485 27.1077 267.392 28.0618 266.53 29.21L266.57 46.14ZM265.84 21.94C267.349 20.2779 269.127 18.8817 271.1 17.81C273.297 16.7196 275.729 16.1873 278.18 16.26C280.159 16.2417 282.114 16.6978 283.88 17.59C285.683 18.549 287.235 19.9193 288.41 21.59C289.806 23.5309 290.846 25.7048 291.48 28.01C292.216 30.829 292.553 33.7374 292.48 36.65C292.527 39.4758 292.139 42.292 291.33 45C290.524 47.3852 289.342 49.6266 287.83 51.64C286.368 53.4627 284.551 54.9698 282.49 56.07C280.328 57.1182 277.952 57.6488 275.55 57.62C273.781 57.67 272.021 57.3675 270.37 56.73C268.987 56.149 267.704 55.3525 266.57 54.37V69.72H254.66V17H262.04C262.681 16.9554 263.318 17.1288 263.848 17.4918C264.378 17.8548 264.77 18.3863 264.96 19L265.84 21.94ZM316.91 16.4C319.723 16.3567 322.521 16.8347 325.16 17.81C327.566 18.6868 329.74 20.099 331.52 21.94C333.319 23.7827 334.733 25.9651 335.68 28.36C336.68 31.1017 337.175 34.0019 337.14 36.92C337.168 39.8604 336.674 42.7825 335.68 45.55C334.753 47.9784 333.337 50.1907 331.52 52.05C329.738 53.888 327.564 55.2997 325.16 56.18C319.834 58.1535 313.976 58.1535 308.65 56.18C306.236 55.2794 304.043 53.871 302.22 52.05C300.403 50.1907 298.987 47.9784 298.06 45.55C297.066 42.7825 296.572 39.8604 296.6 36.92C296.566 34.0019 297.06 31.1017 298.06 28.36C299.007 25.9651 300.421 23.7827 302.22 21.94C304.041 20.1165 306.234 18.7077 308.65 17.81C311.293 16.8339 314.093 16.3559 316.91 16.4ZM316.91 48.8C318.094 48.8689 319.275 48.6286 320.337 48.1025C321.4 47.5765 322.307 46.783 322.97 45.8C324.21 43.88 324.87 40.93 324.87 36.94C324.87 32.95 324.21 30.01 322.97 28.09C322.297 27.1255 321.384 26.3528 320.321 25.8478C319.259 25.3429 318.083 25.1231 316.91 25.21C314.13 25.21 312.083 26.17 310.77 28.09C309.45 30.01 308.77 32.96 308.77 36.94C308.77 40.92 309.42 43.88 310.77 45.8C311.452 46.783 312.374 47.575 313.449 48.1001C314.524 48.6253 315.716 48.8663 316.91 48.8Z" fill="#282828"/>
</svg>
