<svg viewBox="0 0 338 70" fill="none" xmlns="http://www.w3.org/2000/svg">
<path d="M7.99985 47.4C9.04362 48.833 10.4151 49.9953 11.9998 50.79C13.4676 51.4628 15.0654 51.8042 16.6798 51.79C18.2191 51.8655 19.7535 51.5622 21.1483 50.9066C22.5431 50.2511 23.7557 49.2633 24.6798 48.03C26.5098 45.52 27.4599 41.76 27.4599 36.74C27.4599 32.09 26.6598 28.62 24.9698 26.48C24.1564 25.4087 23.0934 24.5525 21.8733 23.986C20.6532 23.4195 19.3132 23.16 17.9698 23.23C16.0135 23.1573 14.0803 23.6728 12.4198 24.71C10.6928 25.7706 9.19104 27.1603 7.99985 28.8V47.4ZM7.99985 23.19C9.57041 21.4438 11.4228 19.9734 13.4798 18.84C15.6174 17.7176 18.0063 17.16 20.4198 17.22C22.5403 17.1869 24.6403 17.6384 26.5598 18.54C28.3712 19.4129 29.9482 20.7053 31.1599 22.31C32.5147 24.112 33.5311 26.145 34.1599 28.31C34.8458 30.9206 35.1821 33.6108 35.1599 36.31C35.2181 39.2488 34.827 42.1793 33.9998 45C33.3169 47.43 32.1765 49.7074 30.6398 51.71C29.2648 53.5457 27.4627 55.0183 25.3898 56C23.2324 57.0603 20.8534 57.5916 18.4498 57.55C17.2967 57.5477 16.147 57.4237 15.0199 57.18C14.0317 56.9673 13.0742 56.6313 12.1698 56.18C11.2849 55.6984 10.4506 55.1289 9.67984 54.48C8.95784 53.7704 8.28935 53.0083 7.67984 52.2L7.30984 55.44C7.27152 55.9071 7.05051 56.3403 6.69479 56.6454C6.33907 56.9506 5.87736 57.1032 5.40985 57.07H0.589844V0H7.99985V23.19ZM51.3298 17.81V57.07H43.8799V17.81H51.3298ZM52.7198 5.7C52.7127 6.38988 52.5629 7.07083 52.2798 7.7C52.0018 8.29511 51.6304 8.842 51.1798 9.32C50.7203 9.82326 50.143 10.2046 49.4998 10.43C48.8725 10.7185 48.1904 10.8686 47.4998 10.87C46.8086 10.8751 46.1251 10.7248 45.4998 10.43C44.9174 10.1868 44.4027 9.80593 43.9998 9.32C43.5268 8.86041 43.1525 8.30917 42.8998 7.7C42.6159 7.0609 42.4692 6.36933 42.4692 5.67C42.4692 4.97066 42.6159 4.2791 42.8998 3.64C43.1502 3.02368 43.5246 2.46545 43.9998 2C44.4335 1.49927 44.9876 1.11726 45.6098 0.889999C46.2335 0.590542 46.9181 0.439925 47.6098 0.450001C48.3009 0.446558 48.9841 0.596852 49.6098 0.889999C50.2134 1.13099 50.7514 1.51135 51.1798 2C51.6304 2.478 52.0018 3.02489 52.2798 3.62C52.5711 4.26763 52.7211 4.96988 52.7198 5.68V5.7ZM89.1798 21C89.1868 21.5317 89.0847 22.0593 88.8799 22.55C88.7324 23.0396 88.4836 23.4927 88.1498 23.88L67.7699 51.18H88.5198V57.09H58.9998V53.89C59.0445 53.4369 59.1418 52.9906 59.2898 52.56C59.4625 52.0597 59.7085 51.5879 60.0199 51.16L80.5598 23.71H60.2399V17.81H89.1798V21ZM103.86 23.29C104.664 22.3806 105.544 21.5409 106.49 20.78C107.406 20.0567 108.383 19.4143 109.41 18.86C110.458 18.3438 111.562 17.948 112.7 17.68C113.944 17.3819 115.22 17.2342 116.5 17.24C118.446 17.2055 120.381 17.545 122.2 18.24C123.732 18.9436 125.095 19.9664 126.2 21.24C127.37 22.6258 128.223 24.2503 128.7 26C129.302 27.9424 129.599 29.9665 129.58 32V57H122.05V32C122.185 29.6573 121.514 27.339 120.15 25.43C118.91 23.88 116.94 23.14 114.31 23.14C112.452 23.1441 110.625 23.6189 109 24.52C107.249 25.5187 105.669 26.7915 104.32 28.29V57.07H96.8698V17.81H101.32C101.774 17.7745 102.226 17.9034 102.593 18.1733C102.96 18.4431 103.218 18.8359 103.32 19.28L103.86 23.29ZM165.31 33.1C165.346 31.7 165.146 30.3039 164.72 28.97C164.322 27.7445 163.675 26.6142 162.82 25.65C162.011 24.7362 161.015 24.0065 159.9 23.51C158.603 22.9822 157.21 22.7302 155.81 22.77C154.458 22.6934 153.105 22.8963 151.835 23.3661C150.566 23.8358 149.406 24.5622 148.43 25.5C146.6 27.27 145.51 29.86 145 33.1H165.31ZM171.52 51.48C170.57 52.5465 169.488 53.4874 168.3 54.28C167.095 55.0364 165.823 55.6792 164.5 56.2C163.14 56.6375 161.75 56.9718 160.34 57.2C158.914 57.4294 157.474 57.5531 156.03 57.57C153.501 57.6054 150.99 57.1292 148.65 56.17C146.385 55.3287 144.355 53.9571 142.73 52.17C140.984 50.2702 139.643 48.0348 138.79 45.6C137.805 42.7041 137.334 39.6581 137.4 36.6C137.399 34.0162 137.818 31.4494 138.64 29C139.468 26.7491 140.706 24.6708 142.29 22.87C143.87 21.0989 145.815 19.6901 147.99 18.74C150.411 17.7047 153.027 17.2033 155.66 17.27C157.909 17.2284 160.145 17.6294 162.24 18.45C164.193 19.1943 165.963 20.3505 167.43 21.84C168.937 23.435 170.104 25.3198 170.86 27.38C171.714 29.7696 172.134 32.2926 172.1 34.83C172.177 35.6424 172.025 36.4602 171.66 37.19C171.499 37.3972 171.287 37.56 171.046 37.6632C170.805 37.7664 170.541 37.8066 170.28 37.78H144.78C144.849 39.8577 145.185 41.918 145.78 43.91C146.299 45.5001 147.117 46.9765 148.19 48.26C149.221 49.3924 150.497 50.2748 151.92 50.84C153.433 51.4252 155.048 51.7006 156.67 51.65C158.124 51.6945 159.576 51.5226 160.98 51.14C162.066 50.7966 163.117 50.3513 164.12 49.81C165 49.37 165.73 49 166.31 48.63C166.775 48.2755 167.336 48.0699 167.92 48.04C168.188 48.0262 168.456 48.0792 168.698 48.1944C168.941 48.3096 169.151 48.4834 169.31 48.7L171.52 51.48ZM203 24.6C202.817 24.8539 202.594 25.0767 202.34 25.26C202.075 25.4206 201.769 25.4973 201.46 25.48C200.969 25.4569 200.493 25.3052 200.08 25.04C199.64 24.82 198.98 24.45 198.32 24.15C197.522 23.7492 196.693 23.4148 195.84 23.15C194.744 22.8637 193.612 22.739 192.48 22.78C191.49 22.7458 190.5 22.8707 189.55 23.15C188.752 23.4203 187.992 23.7935 187.29 24.26C186.706 24.7167 186.231 25.2973 185.9 25.96C185.553 26.6193 185.378 27.3552 185.39 28.1C185.363 28.9924 185.678 29.8614 186.27 30.53C186.92 31.2033 187.686 31.7552 188.53 32.16C189.535 32.6742 190.586 33.0927 191.67 33.41C192.92 33.78 194.08 34.22 195.33 34.59C196.58 34.96 197.74 35.48 198.98 35.99C200.12 36.4963 201.179 37.1705 202.12 37.99C203.051 38.7669 203.822 39.718 204.39 40.79C204.999 42.0547 205.297 43.4467 205.26 44.85C205.275 46.5969 204.935 48.3287 204.26 49.94C203.645 51.5027 202.664 52.8951 201.4 54C200.021 55.1724 198.433 56.0747 196.72 56.66C194.676 57.3531 192.528 57.6913 190.37 57.66C187.825 57.6864 185.298 57.2352 182.92 56.33C180.822 55.5341 178.89 54.3577 177.22 52.86L179 50C179.188 49.6627 179.465 49.3828 179.8 49.19C180.146 48.9633 180.557 48.8578 180.97 48.89C181.526 48.8922 182.066 49.0746 182.51 49.41C183.02 49.78 183.6 50.15 184.33 50.59C185.167 51.066 186.048 51.4611 186.96 51.77C188.195 52.1246 189.475 52.2998 190.76 52.29C191.879 52.3229 192.995 52.1465 194.05 51.77C194.941 51.5085 195.764 51.0545 196.46 50.44C197.029 49.9141 197.5 49.291 197.85 48.6C198.141 47.8718 198.291 47.0944 198.29 46.31C198.329 45.3703 198.015 44.4501 197.41 43.73C196.773 43.0053 196.006 42.4051 195.15 41.96C194.149 41.4205 193.093 40.9913 192 40.68C190.75 40.31 189.51 39.95 188.27 39.5C187.029 39.0991 185.811 38.6317 184.62 38.1C183.47 37.5527 182.402 36.8457 181.45 36C180.499 35.1651 179.73 34.144 179.19 33C178.565 31.6621 178.263 30.196 178.31 28.72C178.292 27.1909 178.616 25.6772 179.26 24.29C179.908 22.9064 180.841 21.676 182 20.68C183.276 19.5401 184.764 18.6634 186.38 18.1C190.613 16.8317 195.14 16.9368 199.31 18.4C201.285 19.1875 203.097 20.3372 204.65 21.79L203 24.6Z" fill="#E6E7E8"/>
<path d="M251.59 57.07H240.2C239.461 57.0841 238.738 56.848 238.15 56.4C237.643 55.9977 237.221 55.4978 236.91 54.93L229.91 42.68C229.787 43.1143 229.616 43.5336 229.4 43.93C229.253 44.288 229.057 44.6243 228.82 44.93L223.05 54.93C222.671 55.4512 222.253 55.9427 221.8 56.4C221.272 56.8457 220.6 57.0839 219.91 57.07H209.36L222.66 36.33L209.88 17H221.27C221.894 16.9521 222.521 17.0514 223.1 17.29C223.554 17.5617 223.932 17.9435 224.2 18.4L231.2 30.28C231.35 29.84 231.57 29.39 231.78 28.88C232.022 28.4202 232.292 27.976 232.59 27.55L237.59 18.62C237.878 18.1376 238.251 17.7108 238.69 17.36C239.153 17.1096 239.674 16.9854 240.2 17H251.08L238.3 35.81L251.59 57.07ZM267.16 46.14C267.925 47.0501 268.899 47.7605 270 48.21C271.04 48.6394 272.154 48.8635 273.28 48.87C274.357 48.9157 275.428 48.6818 276.388 48.1912C277.349 47.7005 278.166 46.9698 278.76 46.07C279.498 44.9209 280.02 43.6467 280.3 42.31C280.706 40.4681 280.901 38.5859 280.88 36.7C280.915 34.9196 280.767 33.1403 280.44 31.39C280.233 30.1341 279.788 28.9292 279.13 27.84C278.658 27.0242 277.964 26.3587 277.13 25.92C276.326 25.5577 275.451 25.3833 274.57 25.41C273.092 25.3534 271.627 25.699 270.33 26.41C269.075 27.1077 267.982 28.0618 267.12 29.21L267.16 46.14ZM266.43 21.94C267.939 20.2779 269.717 18.8817 271.69 17.81C273.887 16.7196 276.318 16.1873 278.77 16.26C280.749 16.2417 282.703 16.6978 284.47 17.59C286.273 18.549 287.825 19.9193 289 21.59C290.396 23.5309 291.436 25.7048 292.07 28.01C292.806 30.829 293.142 33.7374 293.07 36.65C293.117 39.4758 292.729 42.292 291.92 45C291.113 47.3852 289.932 49.6266 288.42 51.64C286.958 53.4627 285.141 54.9698 283.08 56.07C280.918 57.1182 278.542 57.6488 276.14 57.62C274.371 57.67 272.61 57.3675 270.96 56.73C269.576 56.149 268.294 55.3525 267.16 54.37V69.72H255.25V17H262.63C263.271 16.9554 263.908 17.1288 264.438 17.4918C264.968 17.8548 265.36 18.3863 265.55 19L266.43 21.94ZM317.5 16.4C320.313 16.3567 323.111 16.8347 325.75 17.81C328.156 18.6868 330.33 20.099 332.11 21.94C333.909 23.7827 335.323 25.9651 336.27 28.36C337.27 31.1017 337.764 34.0019 337.73 36.92C337.758 39.8604 337.264 42.7825 336.27 45.55C335.342 47.9784 333.927 50.1907 332.11 52.05C330.328 53.888 328.154 55.2997 325.75 56.18C320.423 58.1535 314.566 58.1535 309.24 56.18C306.826 55.2794 304.633 53.871 302.81 52.05C300.993 50.1907 299.577 47.9784 298.65 45.55C297.656 42.7825 297.162 39.8604 297.19 36.92C297.155 34.0019 297.65 31.1017 298.65 28.36C299.597 25.9651 301.011 23.7827 302.81 21.94C304.631 20.1165 306.824 18.7077 309.24 17.81C311.883 16.8339 314.683 16.3559 317.5 16.4ZM317.5 48.8C318.683 48.8689 319.865 48.6286 320.927 48.1025C321.99 47.5765 322.897 46.783 323.56 45.8C324.8 43.88 325.46 40.93 325.46 36.94C325.46 32.95 324.8 30.01 323.56 28.09C322.886 27.1255 321.974 26.3528 320.911 25.8478C319.849 25.3429 318.673 25.1231 317.5 25.21C314.72 25.21 312.673 26.17 311.36 28.09C310.04 30.01 309.36 32.96 309.36 36.94C309.36 40.92 310.01 43.88 311.36 45.8C312.042 46.783 312.964 47.575 314.039 48.1001C315.114 48.6253 316.305 48.8663 317.5 48.8Z" fill="#E6E7E8"/>
</svg>
