<?xml version="1.0" encoding="UTF-8"?><svg xmlns="http://www.w3.org/2000/svg" viewBox="0 0 1420.83 1440"><g id="a"/><g id="b"><g id="c"><path id="d" d="M1418.84,794.69c-8.04-76.43-40.14-148.34-91.67-205.35,16.14-48.48,21.74-99.84,16.42-150.65s-21.42-99.91-47.25-143.99c-38.28-66.68-96.76-119.47-166.99-150.76-70.23-31.28-148.59-39.45-223.77-23.31-33.91-38.21-75.58-68.75-122.25-89.55C736.66,10.28,686.09-.32,635,0c-76.86-.18-151.79,24.04-214,69.19s-108.46,108.89-132.11,182.02c-50.07,10.25-97.38,31.07-138.75,61.09-41.37,30.01-75.85,68.52-101.13,112.93C10.43,491.73-6.04,568.75,1.98,645.22c8.02,76.45,40.11,148.39,91.66,205.43-16.14,48.48-21.74,99.84-16.43,150.65,5.33,50.81,21.43,99.9,47.26,143.99,38.28,66.68,96.76,119.47,167,150.75,70.22,31.29,148.58,39.45,223.76,23.32,33.91,38.21,75.58,68.74,122.25,89.55,46.66,20.79,97.22,31.4,148.31,31.07,76.9,.2,151.88-24.04,214.1-69.22,62.23-45.17,108.5-108.95,132.12-182.13,50.07-10.26,97.37-31.07,138.74-61.09,41.37-30.01,75.85-68.52,101.14-112.94,38.54-66.49,54.97-143.5,46.93-219.93ZM992.57,207.17c51.21,2.2,100.73,18.94,142.78,48.25,42.04,29.32,74.87,70,94.65,117.29,19.77,47.29,25.66,99.24,16.99,149.75-2.12-1.31-5.84-3.55-8.52-5.08l-286.72-165.62c-7.14-4.18-15.27-6.37-23.54-6.37s-16.4,2.2-23.55,6.37l-350.05,202.12v-139.94c-.04-.72,.09-1.43,.4-2.08,.3-.65,.75-1.22,1.33-1.65l289.84-167.21c44.39-25.6,95.18-38.03,146.38-35.84Zm-282.11,332.76l155.9,89.98v180.04l-155.9,89.99-155.91-89.99v-179.98l155.91-90.04Zm-345.31-176.07c.03-51.27,14.67-101.47,42.2-144.72,27.53-43.26,66.8-77.77,113.24-99.52,46.44-21.74,98.1-29.81,148.95-23.25,50.86,6.55,98.79,27.46,138.19,60.27-2.19,1.19-5.99,3.29-8.52,4.82l-286.72,165.62c-7.19,4.09-13.16,10.02-17.31,17.19-4.13,7.17-6.3,15.3-6.25,23.58l-.2,404.08-121.21-69.98c-.64-.31-1.19-.79-1.6-1.36-.41-.58-.68-1.26-.76-1.96V363.85ZM103.9,676.97c-18.51-69.08-8.88-142.69,26.79-204.67,31.48-54.71,81.21-96.59,140.47-118.32,0,2.47-.14,6.84-.14,9.87v331.23c-.05,8.28,2.1,16.41,6.24,23.58,4.13,7.17,10.11,13.1,17.29,17.19l350.05,202.1-121.19,69.98c-.6,.39-1.28,.63-1.99,.7-.72,.07-1.43-.05-2.1-.32l-289.87-167.5c-61.89-35.84-107.04-94.76-125.55-163.83Zm266.1,546.87c-69.11-18.51-128.05-63.69-163.88-125.6-31.62-54.63-43.02-118.64-32.19-180.84,2.13,1.28,5.85,3.55,8.52,5.09l286.72,165.62c7.14,4.18,15.27,6.38,23.55,6.38s16.4-2.2,23.54-6.38l350.05-202.12v139.95c.04,.71-.1,1.43-.4,2.08-.31,.65-.76,1.22-1.33,1.64l-289.84,167.35c-61.99,35.7-135.63,45.36-204.73,26.85Zm685.52-147.84c-.1,71.5-28.52,140.05-79.05,190.63-50.54,50.59-119.06,79.08-190.56,79.23-63.12,.09-124.26-22.01-172.74-62.45,2.19-1.18,6.02-3.29,8.52-4.82l286.72-165.62c7.2-4.1,13.17-10.03,17.31-17.21,4.14-7.17,6.3-15.31,6.25-23.58v-404.21l121.19,69.97c.64,.32,1.18,.79,1.6,1.37,.41,.58,.66,1.25,.76,1.96v334.75Zm269.87-220.33c-4.37,51.1-23.22,99.89-54.32,140.66-31.11,40.78-73.18,71.85-121.3,89.58v-341.14c.07-8.26-2.06-16.39-6.18-23.55-4.11-7.17-10.05-13.11-17.21-17.21l-350.05-202.12,121.19-69.95c.6-.4,1.28-.64,2-.7,.71-.07,1.43,.05,2.09,.33l289.87,167.34c44.41,25.66,80.6,63.42,104.31,108.9,23.72,45.47,33.99,96.75,29.62,147.85Z"/></g></g></svg>