<svg viewBox="0 0 15 16" fill="none" xmlns="http://www.w3.org/2000/svg">
<path d="M14.1292 0.5C14.2006 0.512486 14.2731 0.52146 14.3433 0.537848C14.66 0.612764 14.8959 0.879653 14.9221 1.20975C14.9802 1.94994 14.9431 2.68857 14.8546 3.42407C14.7154 4.58449 14.4256 5.70511 13.9303 6.76798C13.3547 8.00332 12.5185 9.04512 11.5396 9.97845C10.7791 10.7038 9.93984 11.3226 9.0093 11.8151C8.98356 11.8287 8.95782 11.842 8.94378 11.8494C7.16539 10.0694 5.39168 8.2944 3.59924 6.5007C3.70688 6.31185 3.82154 6.09413 3.95141 5.88538C4.97906 4.2341 6.30739 2.88132 7.98048 1.88322C8.90673 1.33071 9.9137 0.970957 10.9706 0.770791C11.5802 0.655295 12.2018 0.60379 12.8184 0.523021C12.8664 0.517168 12.914 0.507804 12.9615 0.5C13.3508 0.5 13.74 0.5 14.1292 0.5ZM8.05224 5.20567C8.05068 6.42071 9.02139 7.3954 10.2343 7.39618C11.4468 7.39736 12.4269 6.42345 12.43 5.21386C12.4331 4.00857 11.4499 3.02179 10.2429 3.01866C9.03504 3.01554 8.05341 3.9953 8.05224 5.20528V5.20567Z" />
<path d="M0 7.71418C0.0967196 7.53587 0.181739 7.35053 0.291719 7.18118C0.715647 6.52918 1.15088 5.88459 1.57481 5.23259C1.80803 4.87361 2.12237 4.66486 2.55371 4.6356C2.9558 4.60828 3.35711 4.57395 3.79858 4.53961C2.85089 5.84791 2.17151 7.25025 1.86341 8.83129C1.55804 8.78486 1.26203 8.7396 0.965636 8.69394C0.941456 8.69043 0.918056 8.68263 0.893876 8.68146C0.445378 8.6557 0.132209 8.45125 0 8.00604V7.71379V7.71418Z" />
<path d="M0 14.8991C0.0935996 14.784 0.177839 14.6596 0.281579 14.555C1.12748 13.7032 1.97534 12.8534 2.82905 12.0094C2.91017 11.929 3.02717 11.8631 3.13793 11.8393C3.31303 11.8018 3.46318 11.8818 3.55717 12.0383C3.6535 12.199 3.64609 12.3629 3.54079 12.5182C3.50842 12.5658 3.46591 12.6072 3.42457 12.6485C2.5658 13.5081 1.70702 14.3677 0.847856 15.2265C0.510508 15.564 0.241799 15.5336 0 15.1328V14.8991Z" />
<path d="M0 12.3289C0.0803397 12.2103 0.145469 12.0765 0.243749 11.975C0.667287 11.5388 1.10136 11.1131 1.52957 10.6816C1.65476 10.5552 1.79828 10.4877 1.97612 10.5302C2.30021 10.6078 2.43242 11.0031 2.1992 11.245C1.72028 11.7425 1.23122 12.2306 0.734367 12.7102C0.510118 12.9267 0.154829 12.8284 0.0374398 12.5393C0.0249599 12.508 0.0124799 12.4768 0 12.4456L0 12.3289Z" />
<path d="M8.02622 12.2697C7.46307 12.4952 6.85935 12.6735 6.23262 12.7621C6.00408 12.7945 5.79894 12.7074 5.63592 12.5447C4.72645 11.6379 3.81814 10.73 2.91257 9.81927C2.71796 9.6234 2.64425 9.38187 2.70704 9.10874C2.78738 8.75874 2.86499 8.40757 2.95937 8.06109C3.02021 7.83673 3.10912 7.62017 3.17893 7.41962C4.79353 9.035 6.40734 10.6496 8.02661 12.2697H8.02622Z" />
<path d="M10.9126 11.6512C10.8716 12.1471 10.8471 12.6083 10.7905 13.0652C10.7523 13.3774 10.5799 13.6314 10.3178 13.8066C9.55461 14.3178 8.79138 14.8285 8.01918 15.326C7.52584 15.6436 6.89833 15.351 6.80239 14.7719C6.73804 14.3841 6.68071 13.9951 6.61792 13.5908C8.19468 13.2822 9.59907 12.6037 10.9126 11.6508V11.6512Z" />
<path d="M4.43119 13.1393C4.67689 13.1464 4.813 13.226 4.89022 13.3914C4.96978 13.5623 4.94443 13.7262 4.8208 13.8655C4.7116 13.9888 4.59031 14.1019 4.4737 14.2186C4.11335 14.5795 3.75572 14.9428 3.39107 15.2994C3.12899 15.5558 2.73353 15.4524 2.64383 15.1098C2.6021 14.9498 2.64734 14.8093 2.76044 14.6954C3.23234 14.2194 3.70424 13.7434 4.18394 13.2755C4.26154 13.1998 4.3801 13.1663 4.4308 13.1393H4.43119Z" />
<path d="M8.92859 5.1994C8.93288 4.47795 9.52256 3.89266 10.2425 3.8954C10.9671 3.89813 11.5626 4.4998 11.5541 5.22047C11.5455 5.95013 10.9535 6.5276 10.2214 6.52058C9.49877 6.51356 8.92469 5.9271 8.92898 5.1994H8.92859Z" />
</svg>
