<svg width="106" height="93" viewBox="0 0 106 93" fill="none" xmlns="http://www.w3.org/2000/svg">
<path fill-rule="evenodd" clip-rule="evenodd" d="M55.8158 51.556C55.3202 49.552 58.234 49.024 58.6217 50.824C59.0414 52.804 56.2235 53.192 55.8158 51.556ZM44.8762 48.724C44.1248 45.516 48.8772 44.62 49.5327 47.616C49.6925 48.36 49.4567 49.016 49.157 49.544C48.9291 49.952 48.4135 50.34 47.746 50.504C47.0026 50.676 46.3351 50.428 45.8115 50.128C45.4038 49.892 45.0361 49.384 44.8762 48.728M39.8521 46.456C39.3885 47.672 37.1822 47.048 37.8177 45.584C38.3133 44.444 40.3997 45.036 39.8521 46.456ZM65.7322 43.432C65.5603 44.284 64.5811 45.092 63.4859 44.812C62.6266 44.584 61.8632 43.724 62.1749 42.54C62.7345 40.44 66.2198 40.98 65.7362 43.432M37.358 37.104C36.9703 34.436 40.7794 34.068 41.1751 36.448C41.3669 37.612 40.5196 38.556 39.5284 38.688C38.3972 38.84 37.4939 38.04 37.354 37.104M47.81 35.596C47.3783 32.968 49.1649 30.872 51.3713 30.504C53.9972 30.072 56.0596 31.924 56.4274 34.1C56.859 36.728 55.0085 38.772 52.8341 39.148C50.2401 39.588 48.1537 37.728 47.81 35.596ZM66.7314 30.396C66.5156 31.3 65.5284 32.096 64.3213 31.784C63.386 31.548 62.5786 30.524 62.9144 29.296C63.5579 26.96 67.355 27.66 66.7314 30.396ZM34.4722 29.728C34.1925 28.212 36.3668 27.876 36.6146 29.276C36.7225 29.92 36.2829 30.472 35.7433 30.556C35.1317 30.652 34.5722 30.232 34.4722 29.728ZM41.9385 23.968C41.8106 20.536 46.6269 20.404 46.8867 23.504C47.0146 24.968 45.9714 26.1 44.6484 26.228C43.2495 26.356 41.9905 25.228 41.9385 23.968ZM63.1942 22.452C62.9463 21.32 64.5171 21.084 64.753 22.012C65.0447 23.152 63.41 23.412 63.1942 22.452ZM56.1796 20.472C55.6719 21.656 53.5776 21.052 54.1691 19.6C54.6967 18.32 56.7631 19.092 56.1796 20.472ZM18.1088 46.028V47.384C18.5285 48.18 18.6804 50.032 20.3671 51.012C21.1305 51.452 21.9819 51.444 22.7013 50.956C23.3048 50.548 23.4647 49.912 23.8404 49.084C24.8317 46.94 26.7142 46.76 29.4121 45.768C30.0916 45.52 31.0469 45.124 31.7344 44.992C32.238 46.788 35.2077 50.148 35.2956 50.332C33.9087 50.772 32.8415 50.212 32.0581 51.344C30.919 52.96 33.9846 56.22 35.8792 55.164C36.9424 54.584 36.5347 53.26 36.8464 51.9C37.6538 52.364 40.2438 54.744 41.9345 55.236C41.7746 56.164 40.9353 58.24 40.5796 59.208C40.008 60.812 39.7402 61.868 38.641 62.664C37.4899 63.492 36.071 63.48 35.6713 64.98C34.9399 67.736 40.1799 69.792 41.8985 68.284C43.3934 66.972 42.4061 65.948 41.9745 64.344C41.5548 62.74 42.4461 61.372 43.0177 60.144C43.5772 58.904 44.2208 57.712 44.7404 56.472C45.5997 56.624 46.6429 57.012 47.6021 57.192C48.6773 57.408 49.8164 57.416 50.8397 57.624C50.6358 58.272 50.368 58.484 49.9683 58.872C48.3016 60.476 49.3648 62.252 51.8189 62.284C53.1619 62.296 54.5288 61.768 54.6367 60.52C54.7566 59.144 53.3257 58.872 53.014 57.592C55.3922 57.508 57.2627 57.032 59.3491 56.408C59.8327 57.204 61.9631 61.692 62.1989 62.532C62.8424 64.868 60.6081 66.268 61.9391 67.992C62.3788 68.564 62.7225 68.528 63.338 68.852H64.5011C64.8129 68.712 65.2526 68.68 65.5963 68.56C67.4589 67.916 69.4573 66.096 68.1983 64.264C67.8106 63.692 67.1031 63.456 66.3277 63.124C64.705 62.412 64.4012 61.4 63.7577 59.648C63.382 58.636 62.3388 56.076 62.2069 55.16C63.41 54.644 65.1127 53.468 66.1239 52.64C66.4996 52.328 66.9193 51.972 67.287 51.68C68.0065 52.82 67.1351 54.104 68.2982 55.008C69.3414 55.836 70.9122 54.728 71.3759 54.212C71.8835 53.664 72.8947 52.232 72.1513 51.156C71.3439 49.952 69.905 50.888 68.8378 50.144L69.7971 48.94C70.4845 48.088 71.9914 45.852 72.2832 44.904C72.9946 45.044 73.8979 45.432 74.6054 45.68C77.0795 46.52 79.4696 47.024 80.361 48.996C80.6847 49.728 80.9645 50.536 81.4801 50.892C83.0189 51.936 84.5137 50.848 85.2971 49.44C85.481 49.108 85.6409 48.796 85.7688 48.396C85.9087 47.976 85.9407 47.436 86.1005 47.104V46.296C85.8527 45.788 85.553 43.94 83.5825 44.252C82.2595 44.456 81.636 45.392 79.8693 44.94C78.986 44.724 74.3296 42.528 73.5342 42.024C73.5982 41.336 74.0418 40.096 74.1897 39.268C74.3935 38.256 74.4575 37.32 74.5774 36.264C75.9124 36.608 76.1802 37.944 77.4072 37.988C79.9772 38.064 79.9333 32.572 77.5031 32.464C76.1482 32.408 75.9763 33.776 74.6094 34.144C74.4375 33.012 74.4175 31.916 74.2017 30.776C73.9978 29.7 73.5782 28.6 73.4183 27.644C74.5574 27.332 78.0427 25.256 79.6375 24.768C82.2395 23.984 83.1348 26.288 85.1772 25.028C85.9087 24.576 85.7048 24.296 86.1045 23.596V22.432C85.6849 21.504 85.6089 19.772 83.8463 18.664C83.1348 18.212 82.1676 18.256 81.4681 18.76C80.8566 19.2 80.6927 19.912 80.317 20.728C79.4337 22.624 77.0035 23.152 74.5414 24.012C73.8739 24.248 72.8747 24.656 72.2192 24.796L69.1416 20.244C68.8938 19.932 68.7859 19.984 68.626 19.62C69.6172 18.824 71.196 19.684 72.0154 18.564C72.8108 17.468 71.8555 16.044 71.2719 15.476C70.6924 14.916 69.2295 13.916 68.1503 14.7C67.0232 15.528 67.8825 16.972 67.1191 18.124C67.0991 18.112 67.0672 18.068 67.0672 18.08C67.0552 18.1 67.0152 18.06 67.0032 18.048C66.3477 17.596 65.8201 17.036 64.757 16.324L62.131 14.708C62.4547 13.416 63.2061 11.532 63.6818 10.22C64.3693 8.33601 64.5851 7.38801 66.1998 6.59201C66.9113 6.23601 67.7267 5.98801 68.1144 5.48401C69.5133 3.68801 67.6747 1.81201 65.7482 1.14401C65.3405 1.00401 64.8329 0.972012 64.4892 0.812012H63.5978C62.8864 1.10401 62.4667 1.04801 62.0271 1.56401C60.4563 3.41601 62.8864 4.68401 62.1989 7.12001C61.9951 7.84001 59.533 13.172 59.1972 13.524C57.2587 12.996 55.56 12.5 53.3457 12.404C53.4297 11.156 55.0444 10.864 55.0125 9.41201C54.9485 6.96801 49.5367 6.95601 49.5367 9.50801C49.5367 10.82 51.2993 11.348 51.1394 12.384C47.4263 12.536 47.4063 13.028 44.9442 13.46C44.4406 12.46 42.2862 8.06801 42.0384 7.20401C41.319 4.70801 43.5972 3.67201 42.2862 1.67201C41.9425 1.16801 41.4988 1.14401 40.8753 0.812012H39.5084C39.1526 1.01601 36.7545 1.44801 35.8832 3.19201C35.4955 3.97601 35.6473 4.96801 36.139 5.54801C36.5906 6.08801 37.3221 6.26801 38.0775 6.63601C39.5843 7.36801 39.8721 8.45601 40.5076 10.156C40.9792 11.448 41.7467 13.332 42.0584 14.612C41.8106 14.816 40.9513 15.248 40.6395 15.42C40.1319 15.712 39.7242 15.98 39.2606 16.304C38.3253 16.94 37.4859 17.608 36.7345 18.264C36.035 17.156 36.8304 15.808 35.7353 14.936C34.6681 14.076 33.2732 15.12 32.7016 15.688C32.162 16.236 31.0869 17.616 31.8303 18.744C32.6377 19.984 34.1845 19.012 35.1877 19.812C34.3164 21.06 33.7128 21.46 32.5617 23.396C32.3259 23.792 32.0901 24.3 31.8063 24.7C30.891 24.54 28.8606 23.732 27.8693 23.364C26.2666 22.772 25.3513 22.6 24.5039 21.448C23.6646 20.296 23.7405 18.876 22.1817 18.476C18.6125 17.584 16.59 25.948 20.7628 25.504C21.4503 25.428 22.1377 24.976 22.8292 24.804C24.42 24.384 25.743 25.236 26.958 25.796C27.9573 26.248 29.7439 27 30.5832 27.56C30.3474 29.216 29.5081 30.476 29.4121 33.696C28.4209 33.64 28.0012 32.028 26.6263 32.104C25.3872 32.168 24.8636 33.492 24.8636 34.84C24.8636 36.188 25.3673 37.52 26.6183 37.616C28.0692 37.724 28.3809 36.12 29.3922 36.032C29.5201 37.164 29.552 38.12 29.7679 39.24C29.9597 40.24 30.3394 41.244 30.4873 42.116C30.0157 42.484 25.1834 44.752 24.452 44.96C22.7852 45.412 22.1297 44.648 20.8068 44.348C18.8283 43.884 18.3327 45.684 18.1168 46.028" fill="#353635"/>
<path fill-rule="evenodd" clip-rule="evenodd" d="M17.8251 84.9C17.6012 83.996 18.9202 83.756 19.0961 84.568C19.2879 85.464 18.0129 85.64 17.8251 84.9ZM12.8809 83.62C12.5411 82.168 14.6915 81.764 14.9872 83.12C15.0592 83.456 14.9553 83.752 14.8154 83.992C14.7115 84.176 14.4796 84.352 14.1799 84.424C13.8441 84.5 13.5444 84.392 13.3045 84.252C13.1207 84.144 12.9528 83.916 12.8809 83.62ZM10.6106 82.592C10.4028 83.144 9.40354 82.86 9.69131 82.2C9.91514 81.684 10.8584 81.952 10.6106 82.592ZM22.3136 81.224C22.2377 81.608 21.794 81.972 21.2984 81.848C20.9107 81.744 20.563 81.356 20.7068 80.82C20.9586 79.872 22.5374 80.112 22.3176 81.224M9.48747 78.364C9.31161 77.156 11.0343 76.992 11.2141 78.068C11.3021 78.592 10.9184 79.024 10.4707 79.08C9.95911 79.148 9.55142 78.788 9.48747 78.364ZM14.2158 77.684C14.02 76.496 14.8274 75.548 15.8266 75.38C17.0137 75.184 17.945 76.024 18.1128 77.004C18.3087 78.192 17.4693 79.116 16.4901 79.288C15.319 79.488 14.3757 78.644 14.2198 77.68M22.7733 75.328C22.6773 75.736 22.2297 76.096 21.6821 75.956C21.2584 75.848 20.8947 75.388 21.0466 74.832C21.3384 73.776 23.053 74.092 22.7733 75.328ZM8.18847 75.028C8.06057 74.34 9.04381 74.192 9.15573 74.824C9.20369 75.116 9.00384 75.364 8.76003 75.404C8.48424 75.448 8.22844 75.256 8.18447 75.028M11.5619 72.424C11.5019 70.872 13.6802 70.812 13.8002 72.216C13.8601 72.876 13.3885 73.388 12.7889 73.448C12.1574 73.508 11.5899 72.996 11.5619 72.428M21.1705 71.74C21.0586 71.228 21.77 71.12 21.8739 71.54C22.0058 72.056 21.2664 72.172 21.1705 71.74ZM18.0009 70.844C17.7731 71.38 16.8218 71.108 17.0936 70.452C17.3334 69.872 18.2647 70.224 18.0009 70.844ZM0.790161 82.4V83.012C0.978017 83.372 1.04596 84.208 1.80938 84.652C2.15311 84.852 2.53682 84.848 2.86456 84.628C3.13636 84.444 3.2083 84.156 3.38017 83.78C3.82782 82.812 4.67917 82.728 5.89823 82.28C6.206 82.168 6.63766 81.988 6.94942 81.928C7.17725 82.74 8.52021 84.26 8.56018 84.34C7.93267 84.54 7.45304 84.288 7.09731 84.796C6.58171 85.528 7.96864 87 8.82398 86.524C9.30761 86.26 9.11975 85.664 9.26364 85.048C9.62736 85.256 10.8025 86.332 11.5659 86.556C11.4939 86.976 11.1142 87.916 10.9543 88.352C10.6985 89.076 10.5746 89.556 10.079 89.916C9.55942 90.292 8.91591 90.284 8.73605 90.964C8.4043 92.208 10.7745 93.14 11.5499 92.456C12.2254 91.864 11.7777 91.4 11.5859 90.676C11.398 89.952 11.8017 89.332 12.0575 88.78C12.3093 88.22 12.6011 87.68 12.8369 87.12C13.2246 87.188 13.6962 87.364 14.1319 87.448C14.6195 87.544 15.1351 87.552 15.5948 87.644C15.5028 87.936 15.3789 88.032 15.1991 88.208C14.4437 88.932 14.9273 89.736 16.0344 89.752C16.642 89.756 17.2615 89.52 17.3095 88.952C17.3614 88.328 16.7139 88.208 16.574 87.628C17.6492 87.588 18.4965 87.376 19.4398 87.092C19.6596 87.452 20.6229 89.48 20.7268 89.86C21.0186 90.916 20.0074 91.548 20.6109 92.328C20.8108 92.584 20.9666 92.572 21.2424 92.716H21.766C21.9059 92.652 22.1058 92.636 22.2616 92.584C23.105 92.292 24.0083 91.468 23.4407 90.644C23.2649 90.384 22.9451 90.28 22.5934 90.128C21.858 89.808 21.7221 89.348 21.4303 88.556C21.2584 88.1 20.7868 86.94 20.7308 86.528C21.2744 86.296 22.0418 85.764 22.5015 85.388C22.6733 85.248 22.8612 85.088 23.0251 84.956C23.3528 85.472 22.9571 86.052 23.4807 86.46C23.9523 86.836 24.6638 86.332 24.8716 86.1C25.0995 85.852 25.5591 85.204 25.2234 84.716C24.8596 84.172 24.2081 84.596 23.7245 84.26L24.1562 83.716C24.4679 83.332 25.1474 82.32 25.2793 81.892C25.5991 81.956 26.0108 82.132 26.3305 82.244C27.4497 82.624 28.5288 82.852 28.9325 83.744C29.0804 84.076 29.2043 84.44 29.4401 84.6C30.1356 85.072 30.8111 84.58 31.1668 83.944C31.2507 83.792 31.3227 83.652 31.3826 83.472C31.4466 83.284 31.4586 83.04 31.5345 82.888V82.524C31.4226 82.296 31.2867 81.46 30.3954 81.6C29.7959 81.692 29.5161 82.116 28.7167 81.912C28.317 81.816 26.2106 80.82 25.8509 80.592C25.8789 80.28 26.0787 79.72 26.1467 79.344C26.2386 78.888 26.2666 78.464 26.3225 77.988C26.9261 78.144 27.046 78.748 27.6015 78.768C28.7646 78.804 28.7447 76.32 27.6455 76.272C27.034 76.248 26.954 76.864 26.3385 77.032C26.2586 76.52 26.2506 76.024 26.1547 75.508C26.0627 75.02 25.8749 74.524 25.7989 74.092C26.3145 73.952 27.8893 73.012 28.6088 72.792C29.7879 72.436 30.1875 73.476 31.1148 72.908C31.4466 72.704 31.3547 72.576 31.5345 72.26V71.736C31.3427 71.316 31.3107 70.532 30.5153 70.032C30.1955 69.828 29.7559 69.848 29.4401 70.076C29.1643 70.276 29.0884 70.596 28.9205 70.968C28.5208 71.824 27.4217 72.064 26.3105 72.452C26.0068 72.56 25.5551 72.744 25.2593 72.808L23.8684 70.748C23.7565 70.608 23.7085 70.632 23.6366 70.464C24.0842 70.104 24.7997 70.492 25.1674 69.988C25.5271 69.492 25.0955 68.848 24.8317 68.592C24.5679 68.34 23.9084 67.884 23.4208 68.24C22.9091 68.616 23.3008 69.268 22.9531 69.788C22.9451 69.784 22.9291 69.764 22.9291 69.768C22.9251 69.776 22.9052 69.76 22.9012 69.752C22.6054 69.548 22.3656 69.292 21.8859 68.972L20.6988 68.24C20.8427 67.656 21.1865 66.804 21.3983 66.212C21.7101 65.36 21.806 64.932 22.5374 64.572C22.8572 64.412 23.2289 64.3 23.4048 64.072C24.0363 63.26 23.2049 62.412 22.3336 62.112C22.1497 62.048 21.9219 62.032 21.766 61.96H21.3623C21.0426 62.092 20.8507 62.068 20.6509 62.3C19.9394 63.136 21.0386 63.712 20.7308 64.812C20.6389 65.14 19.5238 67.548 19.3759 67.708C18.5005 67.468 17.7331 67.244 16.7299 67.2C16.7699 66.636 17.4973 66.504 17.4853 65.848C17.4573 64.744 15.0112 64.74 15.0112 65.892C15.0112 66.484 15.8106 66.724 15.7347 67.192C14.056 67.26 14.048 67.484 12.9328 67.68C12.705 67.228 11.7297 65.24 11.6178 64.852C11.2901 63.724 12.3253 63.256 11.7297 62.348C11.5739 62.12 11.374 62.108 11.0942 61.96H10.4787C10.3188 62.052 9.23167 62.248 8.83997 63.036C8.6641 63.392 8.73205 63.84 8.95588 64.1C9.15972 64.344 9.49147 64.428 9.83121 64.592C10.5107 64.924 10.6426 65.416 10.9304 66.184C11.1462 66.768 11.4899 67.62 11.6298 68.2C11.5179 68.292 11.1302 68.488 10.9863 68.564C10.7585 68.696 10.5746 68.816 10.3628 68.964C9.93912 69.252 9.55942 69.552 9.21968 69.848C8.90392 69.348 9.26364 68.74 8.76802 68.344C8.2844 67.956 7.65288 68.428 7.39708 68.684C7.15327 68.932 6.66564 69.556 7.00138 70.068C7.3651 70.628 8.06856 70.188 8.52022 70.548C8.12452 71.112 7.85273 71.292 7.33313 72.168C7.22521 72.348 7.12129 72.576 6.99339 72.756C6.57771 72.684 5.66241 72.316 5.21476 72.152C4.49131 71.884 4.07563 71.808 3.69193 71.284C3.31222 70.764 3.34819 70.12 2.64074 69.94C1.02598 69.536 0.110684 73.32 1.99723 73.12C2.30899 73.084 2.62075 72.88 2.93251 72.804C3.65196 72.616 4.2515 73 4.79908 73.252C5.25073 73.456 6.05811 73.796 6.43782 74.048C6.3299 74.796 5.95019 75.368 5.90623 76.82C5.45857 76.796 5.27072 76.064 4.6472 76.1C4.08763 76.128 3.84781 76.728 3.84781 77.336C3.84781 77.944 4.07563 78.548 4.6392 78.592C5.2947 78.64 5.43459 77.916 5.89424 77.876C5.95419 78.388 5.96618 78.82 6.0661 79.328C6.15404 79.78 6.3259 80.232 6.39385 80.628C6.17802 80.792 3.99569 81.82 3.66395 81.912C2.90853 82.116 2.61276 81.772 2.01722 81.636C1.12191 81.428 0.898078 82.24 0.802151 82.396" fill="#353635"/>
<path fill-rule="evenodd" clip-rule="evenodd" d="M98.8387 27.3479C98.7308 26.9199 99.3583 26.8039 99.4423 27.1919C99.5302 27.6159 98.9267 27.6999 98.8387 27.3479ZM96.4926 26.7399C96.3327 26.0519 97.3519 25.8599 97.4918 26.4999C97.5278 26.6599 97.4758 26.7999 97.4118 26.9119C97.3639 26.9999 97.252 27.0839 97.1081 27.1159C96.9482 27.1519 96.8043 27.0999 96.6924 27.0359C96.6045 26.9839 96.5245 26.8759 96.4926 26.7359M95.4134 26.2479C95.3135 26.5079 94.8418 26.3759 94.9777 26.0599C95.0856 25.8159 95.5333 25.9439 95.4134 26.2479ZM100.965 25.5999C100.929 25.7839 100.717 25.9559 100.481 25.8959C100.298 25.8479 100.134 25.6639 100.202 25.4079C100.322 24.9559 101.069 25.0719 100.965 25.5999ZM94.8778 24.2399C94.7939 23.6679 95.6132 23.5879 95.6972 24.0999C95.7371 24.3479 95.5573 24.5519 95.3454 24.5799C95.1016 24.6119 94.9098 24.4399 94.8778 24.2399ZM97.1201 23.9159C97.0281 23.3519 97.4118 22.9039 97.8835 22.8239C98.4471 22.7319 98.8907 23.1279 98.9667 23.5959C99.0586 24.1599 98.6629 24.5999 98.1952 24.6799C97.6397 24.7759 97.192 24.3759 97.1161 23.9159M101.177 22.7999C101.129 22.9919 100.917 23.1639 100.661 23.0959C100.461 23.0439 100.29 22.8239 100.358 22.5639C100.497 22.0639 101.313 22.2119 101.177 22.7999ZM94.2543 22.6559C94.1943 22.3319 94.662 22.2599 94.7139 22.5599C94.7379 22.6999 94.642 22.8159 94.5261 22.8359C94.3942 22.8559 94.2743 22.7679 94.2543 22.6599M95.857 21.4239C95.8291 20.6879 96.8643 20.6599 96.9202 21.3239C96.9482 21.6399 96.7244 21.8799 96.4406 21.9079C96.1408 21.9359 95.869 21.6919 95.857 21.4239ZM100.418 21.0959C100.366 20.8519 100.701 20.8039 100.753 20.9999C100.817 21.2439 100.465 21.2999 100.418 21.0959ZM98.9147 20.6719C98.8068 20.9279 98.3551 20.7959 98.483 20.4839C98.5949 20.2079 99.0386 20.3759 98.9147 20.6719ZM90.749 26.1559V26.4479C90.8369 26.6199 90.8729 27.0159 91.2326 27.2279C91.3965 27.3239 91.5803 27.3199 91.7322 27.2159C91.8601 27.1279 91.8961 26.9919 91.976 26.8119C92.1879 26.3519 92.5916 26.3119 93.1711 26.0999C93.315 26.0479 93.5228 25.9599 93.6707 25.9319C93.7786 26.3159 94.4142 27.0399 94.4341 27.0759C94.1384 27.1719 93.9065 27.0519 93.7387 27.2919C93.4949 27.6399 94.1504 28.3359 94.558 28.1119C94.7859 27.9879 94.6979 27.7039 94.7659 27.4119C94.9377 27.5119 95.4973 28.0199 95.857 28.1279C95.8211 28.3279 95.6412 28.7719 95.5653 28.9799C95.4414 29.3239 95.3854 29.5519 95.1496 29.7199C94.9018 29.8959 94.598 29.8959 94.5141 30.2159C94.3582 30.8079 95.4813 31.2479 95.849 30.9239C96.1688 30.6439 95.957 30.4239 95.865 30.0799C95.7731 29.7359 95.965 29.4439 96.0889 29.1799C96.2088 28.9159 96.3487 28.6599 96.4566 28.3919C96.6404 28.4239 96.8643 28.5079 97.0721 28.5479C97.3039 28.5959 97.5477 28.5959 97.7676 28.6399C97.7236 28.7799 97.6637 28.8239 97.5797 28.9079C97.22 29.2519 97.4518 29.6319 97.9754 29.6399C98.2632 29.6399 98.559 29.5279 98.5789 29.2599C98.6029 28.9639 98.2992 28.9079 98.2312 28.6319C98.7428 28.6119 99.1425 28.5119 99.5902 28.3759C99.6941 28.5479 100.15 29.5119 100.202 29.6919C100.342 30.1919 99.862 30.4919 100.146 30.8639C100.242 30.9879 100.314 30.9799 100.446 31.0479H100.693C100.761 31.0199 100.853 31.0119 100.929 30.9839C101.329 30.8439 101.757 30.4559 101.489 30.0639C101.405 29.9399 101.253 29.8919 101.085 29.8199C100.737 29.6679 100.673 29.4519 100.533 29.0759C100.453 28.8599 100.23 28.3079 100.202 28.1119C100.461 27.9999 100.825 27.7479 101.041 27.5719C101.121 27.5039 101.213 27.4279 101.289 27.3679C101.445 27.6119 101.257 27.8879 101.505 28.0799C101.729 28.2599 102.064 28.0199 102.164 27.9079C102.272 27.7919 102.488 27.4839 102.332 27.2519C102.16 26.9919 101.848 27.1959 101.621 27.0359L101.824 26.7759C101.972 26.5919 102.296 26.1119 102.356 25.9079C102.508 25.9399 102.704 26.0199 102.856 26.0759C103.387 26.2559 103.899 26.3639 104.091 26.7879C104.159 26.9439 104.219 27.1159 104.331 27.1959C104.662 27.4199 104.982 27.1879 105.15 26.8839C105.19 26.8119 105.226 26.7439 105.25 26.6599C105.282 26.5679 105.286 26.4559 105.322 26.3839V26.2119C105.27 26.1039 105.206 25.7039 104.782 25.7719C104.498 25.8159 104.366 26.0159 103.987 25.9199C103.799 25.8719 102.8 25.4039 102.628 25.2919C102.64 25.1439 102.736 24.8799 102.768 24.6999C102.812 24.4839 102.824 24.2839 102.852 24.0559C103.139 24.1279 103.195 24.4159 103.459 24.4239C104.011 24.4399 104.003 23.2639 103.479 23.2399C103.187 23.2279 103.151 23.5199 102.86 23.5999C102.824 23.3599 102.82 23.1239 102.772 22.8759C102.728 22.6439 102.636 22.4079 102.604 22.2039C102.848 22.1359 103.595 21.6919 103.939 21.5879C104.498 21.4199 104.69 21.9119 105.126 21.6439C105.282 21.5479 105.238 21.4879 105.326 21.3359V21.0879C105.234 20.8879 105.218 20.5159 104.842 20.2799C104.69 20.1839 104.482 20.1919 104.331 20.2999C104.199 20.3959 104.163 20.5479 104.083 20.7239C103.895 21.1319 103.371 21.2439 102.844 21.4279C102.7 21.4799 102.488 21.5679 102.344 21.5959L101.685 20.6199C101.633 20.5519 101.609 20.5639 101.573 20.4879C101.784 20.3159 102.124 20.5039 102.3 20.2639C102.472 20.0279 102.264 19.7239 102.14 19.5999C102.016 19.4799 101.701 19.2639 101.473 19.4319C101.229 19.6119 101.417 19.9199 101.253 20.1679C101.249 20.1679 101.241 20.1559 101.241 20.1599C101.241 20.1639 101.229 20.1559 101.229 20.1519C101.089 20.0559 100.973 19.9359 100.745 19.7839L100.182 19.4359C100.25 19.1599 100.414 18.7559 100.513 18.4719C100.661 18.0679 100.705 17.8639 101.053 17.6959C101.205 17.6199 101.381 17.5679 101.465 17.4559C101.764 17.0719 101.369 16.6679 100.957 16.5239C100.869 16.4919 100.761 16.4879 100.685 16.4519H100.493C100.342 16.5159 100.25 16.5039 100.158 16.6119C99.822 17.0079 100.342 17.2799 100.194 17.8039C100.15 17.9599 99.6221 19.0999 99.5502 19.1799C99.1345 19.0679 98.7708 18.9599 98.2952 18.9399C98.3152 18.6719 98.6589 18.6079 98.6549 18.2959C98.6429 17.7719 97.4798 17.7679 97.4798 18.3159C97.4798 18.5959 97.8595 18.7119 97.8235 18.9319C97.0281 18.9639 97.0241 19.0719 96.4926 19.1639C96.3846 18.9479 95.921 18.0079 95.869 17.8239C95.7132 17.2879 96.2048 17.0639 95.921 16.6359C95.8491 16.5279 95.7531 16.5239 95.6172 16.4519H95.3254C95.2495 16.4959 94.7339 16.5879 94.5461 16.9639C94.4621 17.1319 94.4941 17.3439 94.602 17.4719C94.6979 17.5879 94.8578 17.6279 95.0177 17.7039C95.3414 17.8599 95.4014 18.0959 95.5373 18.4599C95.6372 18.7359 95.8011 19.1399 95.869 19.4159C95.8171 19.4599 95.6332 19.5519 95.5653 19.5879C95.4573 19.6519 95.3694 19.7079 95.2695 19.7759C95.0696 19.9119 94.8898 20.0559 94.7259 20.1959C94.574 19.9599 94.7459 19.6679 94.5101 19.4839C94.2823 19.2999 93.9825 19.5239 93.8586 19.6439C93.7427 19.7599 93.5108 20.0559 93.6707 20.2999C93.8426 20.5639 94.1743 20.3599 94.3902 20.5279C94.2023 20.7959 94.0744 20.8799 93.8266 21.2959C93.7746 21.3799 93.7267 21.4879 93.6667 21.5759C93.4709 21.5399 93.0352 21.3679 92.8234 21.2879C92.4796 21.1599 92.2838 21.1239 92.0999 20.8759C91.9201 20.6279 91.9361 20.3239 91.6003 20.2399C90.8329 20.0479 90.4012 21.8439 91.2965 21.7479C91.4444 21.7319 91.5923 21.6359 91.7402 21.5959C92.0799 21.5079 92.3677 21.6879 92.6275 21.8079C92.8434 21.9039 93.2271 22.0679 93.4069 22.1879C93.355 22.5439 93.1751 22.8119 93.1551 23.5039C92.9433 23.4919 92.8514 23.1439 92.5556 23.1639C92.2918 23.1759 92.1759 23.4599 92.1759 23.7519C92.1759 24.0439 92.2838 24.3279 92.5516 24.3479C92.8633 24.3719 92.9313 24.0279 93.1471 24.0079C93.1751 24.2519 93.1831 24.4559 93.2271 24.6959C93.267 24.9119 93.351 25.1239 93.3829 25.3119C93.283 25.3919 92.2438 25.8759 92.0879 25.9239C91.7322 26.0199 91.5883 25.8559 91.3045 25.7919C90.8809 25.6919 90.7729 26.0759 90.729 26.1519" fill="#353635"/>
</svg>