<svg viewBox="0 0 4505 1664" fill="none" xmlns="http://www.w3.org/2000/svg">

<path d="M942.9 82.1701C1579.84 -59.5899 1947.23 9.30005 2162.72 94.1701C2541.35 243.3 2618.09 507.58 2936.89 515.17C3220.74 521.92 3283.92 315.36 3633.93 292.17C3925.82 272.83 4248.84 392.17 4400.96 568.17C4656.82 864.19 4395.93 1281.98 4049.58 1482.17C3577.3 1755.16 2851.31 1678.34 2408.4 1520.17C1808.35 1305.89 1745.92 948.76 1348.56 952.17C902.12 956.01 739.9 1408.87 418.7 1366.17C137.38 1328.77 -95.0699 933.96 40.1801 606.17C151.43 336.54 503.2 132.31 942.9 82.1701Z" stroke-width="1.2" stroke-miterlimit="10" stroke-linecap="round"/>
<path d="M1245.79 310.59C1672.65 294.02 1898.12 360.2 2024.25 421.36C2245.86 528.84 2258.55 668.28 2461.38 699.47C2641.98 727.24 2710.83 628.83 2937.86 647.22C3127.2 662.56 3317.34 750.29 3390.39 851.82C3513.26 1022.59 3288.88 1210.21 3039.82 1281.1C2700.19 1377.77 2246.48 1276.82 1985 1159.28C1630.76 1000.04 1640.01 815.15 1385.41 782.75C1099.37 746.34 933.27 960.06 733.73 911.02C558.97 868.06 464.68 649.64 596.31 496.48C704.59 370.5 957.68 298.04 1245.78 310.59H1245.79Z" stroke-width="0.69" stroke-miterlimit="10" stroke-linecap="round"/>
<path d="M977.06 106.4C1591.08 -21.54 1942.76 47.09 2148.29 129.37C2509.42 273.95 2578.73 524.51 2884.75 534.72C3157.22 543.81 3221.33 349.15 3557.84 330.57C3838.48 315.07 4146.69 430.96 4289.86 598.78C4530.65 881.04 4273.17 1273.48 3937.24 1459.42C3479.15 1712.97 2783.24 1633.43 2360.53 1479.69C1787.85 1271.41 1733.83 933.22 1352.17 932.66C923.38 932.03 760.07 1358.57 452.32 1315.14C182.78 1277.12 -33.89 901.69 101.44 593.12C212.76 339.31 553.97 149.61 977.06 106.4Z" stroke-width="1.14" stroke-miterlimit="10" stroke-linecap="round"/>
<path d="M1011.22 130.63C1602.33 16.52 1938.29 84.88 2133.86 164.58C2477.49 304.61 2539.37 541.44 2832.62 554.27C3093.72 565.7 3158.75 382.94 3481.77 368.96C3751.15 357.3 4044.57 469.74 4178.77 629.38C4404.49 897.89 4150.42 1264.98 3824.9 1436.67C3381.01 1670.78 2715.18 1588.52 2312.66 1439.22C1767.34 1236.95 1721.73 917.7 1355.78 913.16C944.63 908.06 780.24 1308.28 485.94 1264.13C228.18 1225.47 27.2999 869.42 162.71 580.08C274.09 342.08 604.74 166.9 1011.22 130.63Z" stroke-width="1.08" stroke-miterlimit="10" stroke-linecap="round"/>
<path d="M1045.38 154.86C1613.58 54.58 1933.82 122.67 2119.43 199.78C2445.57 335.26 2500 558.36 2780.48 573.82C3030.21 587.58 3096.17 416.73 3405.68 407.36C3663.8 399.54 3942.43 508.54 4067.67 660C4278.32 914.75 4027.66 1256.5 3712.55 1413.93C3282.86 1628.6 2647.11 1543.63 2264.79 1398.75C1746.83 1202.48 1709.63 902.18 1359.39 893.66C965.89 884.1 800.4 1257.99 519.55 1213.11C273.58 1173.8 88.47 837.14 223.96 567.03C335.41 344.84 655.5 184.19 1045.37 154.85L1045.38 154.86Z" stroke-width="1.14" stroke-miterlimit="10" stroke-linecap="round"/>
<path d="M1079.55 179.09C1624.84 92.64 1929.36 160.46 2105.01 234.98C2413.65 365.91 2460.65 575.29 2728.36 593.37C2966.72 609.47 3033.6 450.52 3329.62 445.75C3576.48 441.77 3840.31 547.32 3956.59 690.6C4152.17 931.6 3904.92 1248 3600.22 1391.18C3184.73 1586.41 2579.05 1498.72 2216.93 1358.28C1726.34 1168.01 1697.55 886.65 1363.01 874.17C987.16 860.14 820.58 1207.71 553.18 1162.11C318.99 1122.17 149.66 804.89 285.24 554C396.76 347.62 706.28 201.5 1079.55 179.1V179.09Z" stroke-width="0.97" stroke-miterlimit="10" stroke-linecap="round"/>
<path d="M1113.71 203.32C1636.09 130.7 1924.89 198.26 2090.58 270.18C2381.72 396.56 2421.29 592.21 2676.22 612.92C2903.2 631.36 2971.01 484.31 3253.53 484.15C3489.13 484.01 3738.17 586.11 3845.49 721.21C4026.01 948.45 3782.16 1239.51 3487.88 1368.43C3086.59 1544.23 2510.99 1453.81 2169.06 1317.8C1705.83 1133.53 1685.45 871.12 1366.62 854.66C1008.41 836.17 840.75 1157.41 586.8 1111.08C364.39 1070.5 210.85 772.61 346.5 540.94C458.08 350.38 757.05 218.78 1113.7 203.31L1113.71 203.32Z" stroke-width="1.14" stroke-miterlimit="10" stroke-linecap="round"/>
<path d="M1147.87 227.55C1647.34 168.76 1920.42 236.05 2076.15 305.39C2349.79 427.22 2381.92 609.14 2624.08 632.47C2839.69 653.24 2908.43 518.1 3177.44 522.55C3401.79 526.25 3636.02 624.9 3734.39 751.82C3899.84 965.3 3659.4 1231.02 3375.53 1345.69C2988.44 1502.05 2442.91 1408.92 2121.19 1277.34C1685.33 1099.08 1673.36 855.61 1370.23 835.17C1029.67 812.21 860.91 1107.14 620.42 1060.08C409.79 1018.87 272.03 740.36 407.76 527.91C519.41 353.16 807.81 236.09 1147.86 227.56L1147.87 227.55Z" stroke-width="0.86" stroke-miterlimit="10" stroke-linecap="round"/>
<path d="M1182.03 251.78C1658.58 206.81 1915.95 273.84 2061.72 340.59C2317.86 457.87 2342.56 626.07 2571.95 652.02C2776.19 675.13 2845.85 551.89 3101.37 560.94C3314.46 568.49 3533.9 663.68 3623.3 782.43C3773.68 982.16 3536.65 1222.53 3263.19 1322.94C2890.3 1459.86 2374.85 1364.01 2073.32 1236.86C1664.82 1064.6 1661.26 840.07 1373.85 815.66C1050.94 788.23 881.09 1056.84 654.05 1009.05C455.2 967.2 333.22 708.08 469.04 514.85C580.76 355.91 858.6 253.37 1182.03 251.77V251.78Z" stroke-width="1.14" stroke-miterlimit="10" stroke-linecap="round"/>

</svg>
