<svg width="190" height="181" viewBox="0 0 190 181" fill="none" xmlns="http://www.w3.org/2000/svg">
<g clip-path="url(#clip0_137_317)">
<path fill-rule="evenodd" clip-rule="evenodd" d="M90.1707 39.5215C82.4109 39.9851 75.1945 41.0122 68.3846 42.5714L28.4711 2.87766C23.4631 -2.10191 13.6117 -0.453198 6.57773 6.5408L6.57813 6.5412C-0.455808 13.5364 -2.11365 23.334 2.8939 28.3147L32.2673 57.5264C26.8444 60.8644 21.5552 64.6286 16.2859 68.7968L7.44447 77.2154C4.58536 80.7091 3.94871 86.35 6.32123 90.7629C7.97148 93.8323 11.6765 97.0728 16.614 97.3542C23.1502 97.7267 25.151 94.6827 28.3182 91.8975C31.3406 89.2396 34.2729 86.5741 37.7379 84.0455C41.9247 80.9904 46.2944 78.2963 50.8006 75.9575L59.9169 85.0237C53.029 88.2518 46.6702 92.3312 41.0099 97.0907C37.7835 99.804 33.5963 103.049 32.1433 107.19C30.9228 110.669 31.4002 114.472 33.1109 117.455C36.6522 123.63 45.8154 127.292 53.6841 119.493C54.8781 118.31 55.7873 117.766 57.135 116.505C62.7104 111.286 70.7427 107.115 79.6118 104.61L89.8174 114.76C76.1308 116.96 52.6429 128.345 59.1682 142.855C62.6004 150.488 72.2941 152.929 79.5634 146.906C80.3525 146.252 80.5982 145.753 81.4305 145.058C90.3948 137.574 103.646 137.483 113.299 145.061C115.62 146.884 117.741 150.259 123.854 150.312C124.412 150.316 124.956 150.289 125.485 150.231L153.531 178.122C158.539 183.103 168.391 181.454 175.425 174.459L175.426 174.458C182.458 167.464 184.116 157.667 179.109 152.687L150.127 123.865C152.539 123.986 154.954 123.413 157.128 122.092C161.875 119.206 165.745 111.876 161.522 104.862C157.126 97.5631 139.29 86.7249 132.347 83.9229C122.673 80.019 113.329 77.5342 102.913 76.9106L90.7317 64.7962C113.212 63.2975 136.102 69.2938 155.399 82.9304C157.132 84.1549 158.495 85.2672 160.224 86.5729C165.456 90.5245 169.434 96.4465 175.276 97.2511C185.352 98.6384 193.59 88.29 188.398 78.8072C187.038 76.3232 180.418 70.3536 177.879 68.3435L170.442 62.5784C149.072 46.6281 118.362 37.8377 90.1707 39.5223V39.5215ZM12.5913 12.5216C16.5748 8.56041 22.1858 7.65985 25.0617 10.5183L171.426 156.076C174.3 158.936 173.394 164.517 169.411 168.478V168.477C165.428 172.438 159.817 173.34 156.942 170.481L10.5769 24.9226C7.70177 22.0629 8.60892 16.4824 12.5913 12.5216ZM94.532 151.935C88.4648 153.371 83.1452 159.435 85.0471 167.092C89.0603 183.247 113.358 177.509 109.72 161.424C108.337 155.307 102.173 150.127 94.5316 151.935H94.532Z" />
</g>
<defs>
<clipPath id="clip0_137_317">
<rect width="190" height="181" />
</clipPath>
</defs>
</svg>
