<svg width="203" height="151" viewBox="0 0 203 151" fill="none" xmlns="http://www.w3.org/2000/svg">
<g clip-path="url(#clip0_146_321)">
<path fill-rule="evenodd" clip-rule="evenodd" d="M93.5377 0.225525C60.401 2.21013 36.278 13.5659 12.5218 32.3978L2.82741 41.6494C-0.307692 45.4887 -1.00535 51.6882 1.59582 56.5378C3.40514 59.9098 7.46845 63.4719 12.8816 63.7808C20.0488 64.1902 22.2431 60.8459 25.715 57.7839C29.0297 54.8632 32.2448 51.9332 36.0441 49.1556C74.2737 21.1976 126.282 20.4645 165.061 47.9291C166.96 49.2745 168.455 50.4983 170.351 51.9321C176.088 56.2752 180.449 62.783 186.855 63.6673C197.903 65.1917 206.937 53.819 201.243 43.3988C199.752 40.6686 192.494 34.1078 189.709 31.8995L181.554 25.563C158.122 8.03457 124.448 -1.6259 93.5372 0.225525H93.5377ZM98.3201 123.764C91.6671 125.342 85.8344 132.007 87.9198 140.421C92.3198 158.173 118.962 151.868 114.974 134.192C113.457 127.469 106.699 121.777 98.3201 123.763V123.764ZM95.122 82.6416C80.5467 84.1972 52.0635 97.1151 59.544 113.784C63.3072 122.172 73.9364 124.856 81.9069 118.236C82.7722 117.517 83.0416 116.969 83.9545 116.206C93.7836 107.98 108.313 107.881 118.898 116.209C121.443 118.211 123.769 121.922 130.472 121.979C143.236 122.087 149.417 106.766 139.997 97.7761C128.248 86.5644 112.168 80.8229 95.122 82.6422V82.6416ZM93.0027 41.5168C72.6123 43.2078 54.0568 51.3361 39.6326 63.4915C36.0945 66.4733 31.5027 70.0397 29.9103 74.5902C28.5725 78.4131 29.0954 82.5925 30.9705 85.8707C34.8542 92.6563 44.9013 96.6812 53.5295 88.1096C54.8388 86.8095 55.8355 86.2124 57.3135 84.8271C69.1108 73.7595 90.9349 66.9766 110.04 69.3776C121.864 70.8639 136.645 76.7484 145.563 84.8052L150.954 89.8126C155.805 93.4401 161.962 94.0083 166.954 90.9659C172.161 87.7952 176.405 79.7389 171.773 72.0309C166.954 64.0095 147.396 52.0986 139.783 49.0202C124.893 42.9976 110.717 40.0475 93.0016 41.5163L93.0027 41.5168Z" />
</g>
<defs>
<clipPath id="clip0_146_321">
<rect width="203" height="151" />
</clipPath>
</defs>
</svg>
